<?xml version="1.0" encoding="utf-8"?>
<!-- Generator: Adobe Illustrator 16.0.0, SVG Export Plug-In . SVG Version: 6.00 Build 0)  -->
<!DOCTYPE svg PUBLIC "-//W3C//DTD SVG 1.1//EN" "http://www.w3.org/Graphics/SVG/1.1/DTD/svg11.dtd">
<svg version="1.1" id="Layer_1" xmlns="http://www.w3.org/2000/svg" xmlns:xlink="http://www.w3.org/1999/xlink" x="0px" y="0px"
	 width="156px" height="32px" viewBox="0 0 156 32" enable-background="new 0 0 156 32" xml:space="preserve">
<g>
	<g>
		<path id="a_1_" fill="#FFFFFF" d="M83.023,15.456c-1.332,0-2.291,0.435-3.265,0.879V26.37c0.933,0.089,1.468,0.089,2.351,0.089
			c3.197,0,3.636-1.46,3.636-3.497v-4.794c0-1.504-0.501-2.713-2.72-2.713L83.023,15.456z M61.798,14.908
			c-2.218,0-2.724,1.214-2.724,2.717v0.845h5.444v-0.845C64.518,16.122,64.012,14.908,61.798,14.908z M20.678,25.354
			c0,1.19,0.563,1.808,1.805,1.808c1.332,0,2.121-0.433,3.094-0.878v-2.381h-2.914C21.283,23.902,20.678,24.159,20.678,25.354z
			 M103.672,15.456c-2.221,0-2.99,1.209-2.99,2.713v5.492c0,1.508,0.77,2.72,2.99,2.72c2.215,0,2.99-1.212,2.99-2.72v-5.492
			C106.662,16.665,105.887,15.456,103.672,15.456z M9.792,31.512h-6.53V15.754H0v-5.43h3.263v-3.26C3.263,2.634,5.105,0,10.34,0
			h4.357v5.431h-2.724c-2.037,0-2.172,0.76-2.172,2.175l-0.008,2.718h4.934l-0.577,5.43H9.792V31.512z M32.108,31.552h-5.442
			L26.43,30.18c-1.883,1.055-4.007,1.604-6.165,1.596c-3.991,0-6.115-2.658-6.115-6.334c0-4.338,2.479-5.885,6.913-5.885h4.514
			v-0.938c0-2.214-0.255-2.864-3.67-2.864h-5.583l0.546-5.43h6.102c7.493,0,9.136,2.36,9.136,8.338V31.552z M50.613,16.152
			c-3.386-0.578-4.359-0.706-5.988-0.706c-2.927,0-3.811,0.644-3.811,3.123v4.688c0,2.479,0.884,3.125,3.811,3.125
			c1.63,0,2.602-0.13,5.988-0.711v5.296c-2.966,0.663-4.898,0.839-6.531,0.839c-7.01,0-9.797-3.677-9.797-8.986v-3.803
			c0-5.315,2.786-8.998,9.797-8.998c1.633,0,3.565,0.175,6.531,0.841V16.152L50.613,16.152z M71.047,22.818H59.073v0.438
			c0,2.479,0.885,3.125,3.811,3.125c2.63,0,4.236-0.13,7.617-0.711v5.296c-3.26,0.663-4.96,0.839-8.158,0.839
			c-7.01,0-9.799-3.677-9.799-8.986V18.47c0-4.646,2.069-8.45,9.253-8.45s9.25,3.76,9.25,8.45v4.351V22.818z M92.273,22.918
			c0,5.133-1.472,8.876-10.383,8.876c-3.22,0-5.107-0.282-8.66-0.827V1.631l6.529-1.086v10.262c1.41-0.522,3.236-0.788,4.897-0.788
			c6.528,0,7.616,2.918,7.616,7.607V22.918L92.273,22.918z M113.197,23.03c0,4.427-1.834,8.721-9.504,8.721
			c-7.674,0-9.541-4.294-9.541-8.72v-4.275c0-4.43,1.867-8.724,9.541-8.724c7.67,0,9.504,4.294,9.504,8.724V23.03z M134.107,23.03
			c0,4.427-1.836,8.721-9.504,8.721c-7.674,0-9.541-4.294-9.541-8.72v-4.275c0-4.43,1.867-8.724,9.539-8.724
			c7.67,0,9.506,4.294,9.506,8.724V23.03z M155.566,31.512h-7.076l-5.984-9.96v9.96h-6.529V1.63l6.529-1.086V19.78l5.984-9.456
			h7.076l-6.533,10.32L155.566,31.512L155.566,31.512z M124.58,15.456c-2.219,0-2.988,1.209-2.988,2.713v5.492
			c0,1.508,0.77,2.72,2.988,2.72c2.214,0,2.998-1.212,2.998-2.72v-5.492C127.578,16.665,126.794,15.456,124.58,15.456z"/>
	</g>
	<defs>
		<filter id="Adobe_OpacityMaskFilter" filterUnits="userSpaceOnUse" x="-34.335" y="-96" width="224" height="223">
			<feColorMatrix  type="matrix" values="1 0 0 0 0  0 1 0 0 0  0 0 1 0 0  0 0 0 1 0"/>
		</filter>
	</defs>
	<mask maskUnits="userSpaceOnUse" x="-34.335" y="-96" width="224" height="223" id="b">
		<g filter="url(#Adobe_OpacityMaskFilter)">
			<path id="a" fill="#FFFFFF" d="M83.023,15.456c-1.332,0-2.291,0.435-3.265,0.879V26.37c0.933,0.089,1.468,0.089,2.351,0.089
				c3.197,0,3.636-1.46,3.636-3.497v-4.794c0-1.504-0.501-2.713-2.72-2.713L83.023,15.456z M61.798,14.908
				c-2.218,0-2.724,1.214-2.724,2.717v0.845h5.444v-0.845C64.518,16.122,64.012,14.908,61.798,14.908z M20.678,25.354
				c0,1.19,0.563,1.808,1.805,1.808c1.332,0,2.121-0.433,3.094-0.878v-2.381h-2.914C21.283,23.902,20.678,24.159,20.678,25.354z
				 M103.672,15.456c-2.221,0-2.99,1.209-2.99,2.713v5.492c0,1.508,0.77,2.72,2.99,2.72c2.215,0,2.99-1.212,2.99-2.72v-5.492
				C106.662,16.665,105.887,15.456,103.672,15.456z M9.792,31.512h-6.53V15.754H0v-5.43h3.263v-3.26C3.263,2.634,5.105,0,10.34,0
				h4.357v5.431h-2.724c-2.037,0-2.172,0.76-2.172,2.175l-0.008,2.718h4.934l-0.577,5.43H9.792V31.512z M32.108,31.552h-5.442
				L26.43,30.18c-1.883,1.055-4.007,1.604-6.165,1.596c-3.991,0-6.115-2.658-6.115-6.334c0-4.338,2.479-5.885,6.913-5.885h4.514
				v-0.938c0-2.214-0.255-2.864-3.67-2.864h-5.583l0.546-5.43h6.102c7.493,0,9.136,2.36,9.136,8.338V31.552z M50.613,16.152
				c-3.386-0.578-4.359-0.706-5.988-0.706c-2.927,0-3.811,0.644-3.811,3.123v4.688c0,2.479,0.884,3.125,3.811,3.125
				c1.63,0,2.602-0.13,5.988-0.711v5.296c-2.966,0.663-4.898,0.839-6.531,0.839c-7.01,0-9.797-3.677-9.797-8.986v-3.803
				c0-5.315,2.786-8.998,9.797-8.998c1.633,0,3.565,0.175,6.531,0.841V16.152L50.613,16.152z M71.047,22.818H59.073v0.438
				c0,2.479,0.885,3.125,3.811,3.125c2.63,0,4.236-0.13,7.617-0.711v5.296c-3.26,0.663-4.96,0.839-8.158,0.839
				c-7.01,0-9.799-3.677-9.799-8.986V18.47c0-4.646,2.069-8.45,9.253-8.45s9.25,3.76,9.25,8.45v4.351V22.818z M92.273,22.918
				c0,5.133-1.472,8.876-10.383,8.876c-3.22,0-5.107-0.282-8.66-0.827V1.631l6.529-1.086v10.262c1.41-0.522,3.236-0.788,4.897-0.788
				c6.528,0,7.616,2.918,7.616,7.607V22.918L92.273,22.918z M113.197,23.03c0,4.427-1.834,8.721-9.504,8.721
				c-7.674,0-9.541-4.294-9.541-8.72v-4.275c0-4.43,1.867-8.724,9.541-8.724c7.67,0,9.504,4.294,9.504,8.724V23.03z M134.107,23.03
				c0,4.427-1.836,8.721-9.504,8.721c-7.674,0-9.541-4.294-9.541-8.72v-4.275c0-4.43,1.867-8.724,9.539-8.724
				c7.67,0,9.506,4.294,9.506,8.724V23.03z M155.566,31.512h-7.076l-5.984-9.96v9.96h-6.529V1.63l6.529-1.086V19.78l5.984-9.456
				h7.076l-6.533,10.32L155.566,31.512L155.566,31.512z M124.58,15.456c-2.219,0-2.988,1.209-2.988,2.713v5.492
				c0,1.508,0.77,2.72,2.988,2.72c2.214,0,2.998-1.212,2.998-2.72v-5.492C127.578,16.665,126.794,15.456,124.58,15.456z"/>
		</g>
	</mask>
	<g mask="url(#b)">
		<path fill="#23262C" d="M-34.335-96h224v223h-224V-96z"/>
	</g>
</g>
</svg>
