<?xml version="1.0" encoding="utf-8"?>
<!-- Generator: Adobe Illustrator 16.0.0, SVG Export Plug-In . SVG Version: 6.00 Build 0)  -->
<!DOCTYPE svg PUBLIC "-//W3C//DTD SVG 1.1//EN" "http://www.w3.org/Graphics/SVG/1.1/DTD/svg11.dtd">
<svg version="1.1" id="Layer_1" xmlns="http://www.w3.org/2000/svg" xmlns:xlink="http://www.w3.org/1999/xlink" x="0px" y="0px"
	 width="17px" height="32px" viewBox="0 0 17 32" enable-background="new 0 0 17 32" xml:space="preserve">
<g>
	<path fill="none" d="M-8,0h32v32H-8V0z"/>
	<g>
		<g>
			<path id="a_1_" fill="#23262C" d="M16.855,0v0.003h0.002v6.4h-3.2c-1.104,0-1.601,1.293-1.601,2.4v3.999h4.801v6.4h-4.801V32
				l-6.399-0.003V19.201h-4.8v-6.4h4.8V6.403c0-3.534,2.866-6.399,6.399-6.399l4.801-0.003L16.855,0z"/>
		</g>
		<defs>
			<filter id="Adobe_OpacityMaskFilter" filterUnits="userSpaceOnUse" x="-40" y="-34" width="100" height="100">
				<feColorMatrix  type="matrix" values="1 0 0 0 0  0 1 0 0 0  0 0 1 0 0  0 0 0 1 0"/>
			</filter>
		</defs>
		<mask maskUnits="userSpaceOnUse" x="-40" y="-34" width="100" height="100" id="b">
			<g filter="url(#Adobe_OpacityMaskFilter)">
				<path id="a" fill="#FFFFFF" d="M16.855,0v0.003h0.002v6.4h-3.2c-1.104,0-1.601,1.293-1.601,2.4v3.999h4.801v6.4h-4.801V32
					l-6.399-0.003V19.201h-4.8v-6.4h4.8V6.403c0-3.534,2.866-6.399,6.399-6.399l4.801-0.003L16.855,0z"/>
			</g>
		</mask>
		<g mask="url(#b)">
			<path fill="#607AB3" d="M-40-34H60V66H-40V-34z"/>
		</g>
	</g>
</g>
</svg>
