<?xml version="1.0" encoding="utf-8"?>
<!-- Generator: Adobe Illustrator 16.0.0, SVG Export Plug-In . SVG Version: 6.00 Build 0)  -->
<!DOCTYPE svg PUBLIC "-//W3C//DTD SVG 1.1//EN" "http://www.w3.org/Graphics/SVG/1.1/DTD/svg11.dtd">
<svg version="1.1" id="Layer_1" xmlns="http://www.w3.org/2000/svg" xmlns:xlink="http://www.w3.org/1999/xlink" x="0px" y="0px"
	 width="32px" height="26px" viewBox="0 0 32 26" enable-background="new 0 0 32 26" xml:space="preserve">
<g>
	<g>
		<path id="a_1_" fill="#23262C" d="M15.703,17.708L15.7,17.762c-6.42-4.211-5.15-7.484-5.15-7.484
			c2.608-4.727,5.105-0.742,5.428-0.188c0.308-0.452,3.15-4.399,5.415,0.584C21.393,10.674,22.412,14.023,15.703,17.708
			L15.703,17.708z M0.002,12.675C1.273-0.272,16.576,0.583,16.576,0.583C33.13,1.688,31.982,13.405,31.982,13.405
			C30.189,27.395,11.593,23.6,11.593,23.6c-0.667,0.521-3.002,1.25-3.002,1.25c-3.44,1.064-4.065-0.457-4.065-0.457
			c2.356-2.23,2.335-2.711,1.543-3.023C-0.27,18.846,0.002,12.675,0.002,12.675z M8.362,21.182c0.208,0.084-1.439,2.709-1.439,2.709
			c2.46-0.207,4.441-1.563,4.441-1.563c18.221,3.482,19.472-9.007,19.472-9.007C30.461,2.001,16.138,1.688,16.138,1.688
			C1.524,2.126,1.17,12.508,1.17,12.508S0.044,18.075,8.362,21.182L8.362,21.182z"/>
	</g>
	<defs>
		<filter id="Adobe_OpacityMaskFilter" filterUnits="userSpaceOnUse" x="-34" y="-38" width="100" height="100">
			<feColorMatrix  type="matrix" values="1 0 0 0 0  0 1 0 0 0  0 0 1 0 0  0 0 0 1 0"/>
		</filter>
	</defs>
	<mask maskUnits="userSpaceOnUse" x="-34" y="-38" width="100" height="100" id="b">
		<g filter="url(#Adobe_OpacityMaskFilter)">
			<path id="a" fill="#FFFFFF" d="M15.703,17.708L15.7,17.762c-6.42-4.211-5.15-7.484-5.15-7.484
				c2.608-4.727,5.105-0.742,5.428-0.188c0.308-0.452,3.15-4.399,5.415,0.584C21.393,10.674,22.412,14.023,15.703,17.708
				L15.703,17.708z M0.002,12.675C1.273-0.272,16.576,0.583,16.576,0.583C33.13,1.688,31.982,13.405,31.982,13.405
				C30.189,27.395,11.593,23.6,11.593,23.6c-0.667,0.521-3.002,1.25-3.002,1.25c-3.44,1.064-4.065-0.457-4.065-0.457
				c2.356-2.23,2.335-2.711,1.543-3.023C-0.27,18.846,0.002,12.675,0.002,12.675z M8.362,21.182
				c0.208,0.084-1.439,2.709-1.439,2.709c2.46-0.207,4.441-1.563,4.441-1.563c18.221,3.482,19.472-9.007,19.472-9.007
				C30.461,2.001,16.138,1.688,16.138,1.688C1.524,2.126,1.17,12.508,1.17,12.508S0.044,18.075,8.362,21.182L8.362,21.182z"/>
		</g>
	</mask>
	<g mask="url(#b)">
		<path fill="#84D736" d="M-34-38H66V62H-34V-38z"/>
	</g>
</g>
</svg>
