<svg xmlns="http://www.w3.org/2000/svg" width="41" height="32" viewBox="0 0 41 32">
    <g fill="none" fill-rule="evenodd">
        <path fill="#010101" fill-rule="nonzero" d="M.053 15.733C1.68-.827 21.253.267 21.253.267c21.174 1.413 19.707 16.4 19.707 16.4-2.293 17.893-26.08 13.04-26.08 13.04-.853.666-3.84 1.6-3.84 1.6-4.4 1.36-5.2-.587-5.2-.587 3.013-2.853 2.987-3.467 1.973-3.867-8.106-3.226-7.76-11.12-7.76-11.12z"/>
        <path fill="#FFF" d="M10.747 26.613c.266.107-1.84 3.467-1.84 3.467 3.146-.267 5.68-2 5.68-2 23.306 4.453 24.906-11.52 24.906-11.52-.48-14.48-18.8-14.88-18.8-14.88C2 2.24 1.547 15.52 1.547 15.52s-1.44 7.12 9.2 11.093z"/>
        <path fill="#EC2624" fill-rule="nonzero" d="M20.136 22.17l-.003.07c-8.213-5.387-6.586-9.573-6.586-9.573 3.334-6.047 6.529-.95 6.941-.24.394-.579 4.029-5.626 6.925.746 0 0 1.304 4.284-7.277 8.997z"/>
    </g>
</svg>
