<svg xmlns="http://www.w3.org/2000/svg" xmlns:xlink="http://www.w3.org/1999/xlink" width="150" height="32" viewBox="0 0 150 32">
    <defs>
        <path id="a" d="M87.483 1.898c-.05-.953.773-1.85 1.725-1.888.71-.022 1.42-.001 2.13.002.005 8.363-.003 16.727.005 25.09-.01.23-.026.461-.053.691-1.268-.019-2.536-.004-3.804-.01-.006-.55-.008-1.103-.006-1.655-1.594 1.208-3.487 2.067-5.494 2.233-2.879.312-5.87-.648-8.005-2.609-2.195-1.956-3.516-4.886-3.424-7.834-.038-2.2.725-4.39 2.035-6.151 1.745-2.352 4.517-3.934 7.45-4.142 2.658-.263 5.345.617 7.438 2.249.004-1.991-.004-3.984.003-5.976zm-8.005 7.87c-2.496.656-4.457 2.93-4.72 5.499a6.421 6.421 0 0 0 1.74 5.175c1.264 1.351 3.14 2.115 4.989 2.01 1.87-.095 3.68-1.052 4.799-2.555.818-1.09 1.313-2.44 1.305-3.81.066-2.196-1.125-4.366-2.979-5.53-1.5-.967-3.415-1.283-5.134-.789zM3.83 7.883c2.032-1.607 4.646-2.477 7.242-2.274 2.684.148 5.274 1.427 7.054 3.436 1.465 1.63 2.406 3.738 2.594 5.925a10.38 10.38 0 0 1-2.36 7.716c-1.751 2.109-4.366 3.496-7.106 3.689-2.65.255-5.347-.609-7.424-2.26-.002 1.996.002 3.992 0 5.986.042.919-.707 1.78-1.616 1.882-.736.037-1.476 0-2.215.011.011-8.591 0-17.183.006-25.773 1.273-.013 2.544 0 3.817-.008.008.557.011 1.113.008 1.67zM8.872 9.67a6.513 6.513 0 0 0-3.923 2.534c-1.14 1.55-1.538 3.633-1.008 5.488a6.456 6.456 0 0 0 3.375 4.096 6.303 6.303 0 0 0 4.814.353c2.046-.64 3.676-2.383 4.24-4.443.69-2.397-.205-5.123-2.135-6.686-1.466-1.22-3.494-1.743-5.363-1.342zm17.243-.949c1.79-1.857 4.3-3.01 6.88-3.12 2.537-.165 5.08.692 7.075 2.253-.007-.549-.032-1.1.04-1.646 1.271.021 2.542-.005 3.813.015-.004 6.521.009 13.04-.006 19.562-1.255.008-2.512-.024-3.767.018-.157-.541-.054-1.11-.104-1.664a10.32 10.32 0 0 1-7.223 2.249c-2.556-.148-5.024-1.328-6.78-3.185-1.723-1.77-2.74-4.182-2.876-6.644-.161-2.868.92-5.795 2.948-7.838zm6.291.97c-3.091.628-5.395 3.765-5.046 6.905a6.546 6.546 0 0 0 2.523 4.537c1.59 1.22 3.77 1.666 5.695 1.065 2.025-.577 3.704-2.214 4.334-4.223.868-2.555-.11-5.577-2.294-7.156-1.468-1.097-3.419-1.547-5.212-1.128zm23.811-4.039c2.066-.237 4.205.145 6.04 1.13 3.427 1.78 5.685 5.582 5.532 9.452-.01 3.185.01 6.368-.01 9.551-1.385-.003-2.77-.003-4.154 0-.021-3.288.003-6.576-.013-9.862-.002-2.35-1.476-4.608-3.614-5.573a6.16 6.16 0 0 0-5.187-.003 6.266 6.266 0 0 0-3.451 4.22c-.23.97-.161 1.974-.17 2.963-.006 2.752.01 5.504-.007 8.255a891.566 891.566 0 0 0-4.152.002c-.055-3.237-.008-6.473-.024-9.71-.008-2.065.585-4.13 1.737-5.85 1.664-2.514 4.464-4.267 7.473-4.575zm46.466.076c2.056-.335 4.216-.082 6.11.799a10.467 10.467 0 0 1 5.137 5.181c1.189 2.621 1.22 5.74.085 8.387a10.45 10.45 0 0 1-5.57 5.53c-1.581.665-3.33.91-5.034.736-2.571-.228-5.018-1.499-6.723-3.427-1.558-1.74-2.508-4.021-2.608-6.357a10.348 10.348 0 0 1 2.392-7.261c1.558-1.88 3.8-3.18 6.211-3.588zm.327 4.213c-2.48.578-4.48 2.814-4.724 5.357-.352 2.6 1.193 5.272 3.566 6.353 1.464.692 3.2.754 4.72.2 1.862-.676 3.351-2.292 3.868-4.206.23-.765.22-1.576.176-2.365-.218-2.12-1.643-4.047-3.57-4.935a6.24 6.24 0 0 0-4.036-.404zm16.808-.96c2.128-2.335 5.383-3.332 8.47-3.361-.004 1.397.004 2.794-.006 4.192-1.772-.021-3.639.46-4.962 1.693-1.166 1.076-1.673 2.699-1.675 4.252-.002 3.343.003 6.685-.003 10.028-1.386.002-2.771-.012-4.157.01-.045-3.344-.005-6.692-.02-10.037-.009-2.428.68-4.959 2.353-6.777zm11.148.667c1.649-2.166 4.183-3.646 6.888-3.975 2.793-.388 5.695.446 7.895 2.2-.001-.552-.001-1.104.002-1.655 1.287-.005 2.574 0 3.862-.004.01 6.524.008 13.047 0 19.57-1.288-.002-2.573.001-3.86-.002-.004-.552-.007-1.105-.005-1.658-2.022 1.608-4.634 2.464-7.216 2.267-2.072-.113-4.092-.897-5.722-2.176-2.163-1.684-3.629-4.257-3.915-6.99a10.385 10.385 0 0 1 2.071-7.577zm7.113.04c-2.693.557-4.852 3.003-5.052 5.75-.2 2.017.652 4.087 2.178 5.414 1.535 1.368 3.755 1.94 5.753 1.423a6.505 6.505 0 0 0 3.886-2.768 6.427 6.427 0 0 0 .888-4.89c-.385-1.81-1.603-3.418-3.232-4.293a6.348 6.348 0 0 0-4.42-.636z"/>
    </defs>
    <g fill="none" fill-rule="evenodd">
        <mask id="b" fill="#fff">
            <use xlink:href="#a"/>
        </mask>
        <use fill="#00A0EE" fill-rule="nonzero" xlink:href="#a"/>
        <g fill="#23262C" mask="url(#b)">
            <path d="M-34.335-96h224v223h-224z"/>
        </g>
    </g>
</svg>
