<?xml version="1.0" encoding="utf-8"?>
<!-- Generator: Adobe Illustrator 16.0.0, SVG Export Plug-In . SVG Version: 6.00 Build 0)  -->
<!DOCTYPE svg PUBLIC "-//W3C//DTD SVG 1.1//EN" "http://www.w3.org/Graphics/SVG/1.1/DTD/svg11.dtd">
<svg version="1.1" id="Layer_1" xmlns="http://www.w3.org/2000/svg" xmlns:xlink="http://www.w3.org/1999/xlink" x="0px" y="0px"
	 width="32px" height="32px" viewBox="0 0 32 32" enable-background="new 0 0 32 32" xml:space="preserve">
<g>
	<path fill="none" d="M0,0h32v32H0V0z"/>
	<g>
		<g>
			<path id="a_1_" fill="#F58B1F" d="M16,0c8.836,0,16,7.164,16,16s-7.164,16-16,16S0,24.836,0,16S7.164,0,16,0z M16,8v9.37
				c-0.534-0.304-1.122-0.496-1.772-0.496c-1.965,0.005-3.556,1.597-3.561,3.562c0.004,1.965,1.596,3.557,3.561,3.562
				c1.964,0,3.678-1.601,3.678-3.562V11.81h3.427V8H16z"/>
		</g>
		<defs>
			<filter id="Adobe_OpacityMaskFilter" filterUnits="userSpaceOnUse" x="-34" y="-34" width="100" height="100">
				<feColorMatrix  type="matrix" values="1 0 0 0 0  0 1 0 0 0  0 0 1 0 0  0 0 0 1 0"/>
			</filter>
		</defs>
		<mask maskUnits="userSpaceOnUse" x="-34" y="-34" width="100" height="100" id="b">
			<g filter="url(#Adobe_OpacityMaskFilter)">
				<path id="a" fill="#FFFFFF" d="M16,0c8.836,0,16,7.164,16,16s-7.164,16-16,16S0,24.836,0,16S7.164,0,16,0z M16,8v9.37
					c-0.534-0.304-1.122-0.496-1.772-0.496c-1.965,0.005-3.556,1.597-3.561,3.562c0.004,1.965,1.596,3.557,3.561,3.562
					c1.964,0,3.678-1.601,3.678-3.562V11.81h3.427V8H16z"/>
			</g>
		</mask>
		<g mask="url(#b)">
			<path fill="#F58B1F" d="M-34-34H66V66H-34V-34z"/>
		</g>
	</g>
</g>
</svg>
