<svg xmlns="http://www.w3.org/2000/svg" xmlns:xlink="http://www.w3.org/1999/xlink" width="32" height="27" viewBox="0 0 32 27">
    <defs>
        <path id="a" d="M31.188 20.452c-3.7-.108-8.168 2.796-9.9 3.89-.16.1-.194.194-.36.279-.18.101-.368.194-.556.287V14.226h-.005c.007-.956-.408-1.965-1.006-2.932l-.052-.085c-1.73-2.797-5.37-4.427-8.784-3.274-3.315 1.12-4.2 4.33-2.445 7.17l.053.086c1.728 2.796 5.368 4.427 8.782 3.274.264-.09.507-.195.737-.31v7.725a14.82 14.82 0 0 1-3.884.52C5.866 26.4 0 20.486 0 13.2v-.095C0 5.82 5.819 0 13.673 0c7.901 0 13.769 5.914 13.769 13.2v.095c0 .568-.04 1.125-.109 1.673 4.116 1.072 5.813 5.331 3.855 5.484"/>
    </defs>
    <g fill="none" fill-rule="evenodd">
        <path d="M0-3h32v32H0z"/>
        <g>
            <mask id="b" fill="#fff">
                <use xlink:href="#a"/>
            </mask>
            <use fill="#2D7BC8" fill-rule="nonzero" transform="matrix(1 0 0 -1 0 26.4)" xlink:href="#a"/>
            <g fill="#23262C" mask="url(#b)">
                <path d="M-34-37H66V63H-34z"/>
            </g>
        </g>
    </g>
</svg>
