<?xml version="1.0" encoding="utf-8"?>
<!-- Generator: Adobe Illustrator 16.0.0, SVG Export Plug-In . SVG Version: 6.00 Build 0)  -->
<!DOCTYPE svg PUBLIC "-//W3C//DTD SVG 1.1//EN" "http://www.w3.org/Graphics/SVG/1.1/DTD/svg11.dtd">
<svg version="1.1" id="Layer_1" xmlns="http://www.w3.org/2000/svg" xmlns:xlink="http://www.w3.org/1999/xlink" x="0px" y="0px"
	 width="78px" height="44px" viewBox="0 0 78 44" enable-background="new 0 0 78 44" xml:space="preserve">
<g>
	<g>
		<path id="a_1_" fill="#666666" d="M3.77,17.521c-0.167,0-0.303,0.134-0.324,0.318l-0.765,6.972l0.765,6.819
			c0.021,0.181,0.157,0.313,0.323,0.313c0.164,0,0.297-0.129,0.324-0.313l0.866-6.819l-0.866-6.976
			C4.066,17.652,3.933,17.521,3.77,17.521L3.77,17.521z M0.897,20.194c-0.163,0-0.29,0.124-0.311,0.302l-0.57,4.314l0.57,4.239
			c0.02,0.177,0.148,0.302,0.311,0.302c0.157,0,0.285-0.125,0.311-0.302l0.67-4.239l-0.67-4.314
			C1.182,20.318,1.054,20.194,0.897,20.194L0.897,20.194z M6.817,16.154c-0.204,0-0.368,0.16-0.389,0.382l-0.723,8.274l0.723,7.971
			c0.021,0.222,0.185,0.382,0.39,0.382c0.2,0,0.364-0.16,0.39-0.38l0.822-7.973l-0.821-8.274
			C7.182,16.314,7.019,16.154,6.817,16.154z M9.893,15.864c-0.246,0.005-0.445,0.201-0.454,0.447l-0.686,8.5l0.686,8.226
			c0.009,0.245,0.208,0.442,0.454,0.446c0.24,0,0.435-0.191,0.456-0.446l0.778-8.224l-0.778-8.504
			c-0.012-0.245-0.211-0.439-0.456-0.445V15.864z M13.513,16.922c-0.009-0.281-0.237-0.505-0.518-0.51
			c-0.282,0-0.504,0.22-0.522,0.516l-0.647,7.883l0.647,8.293c0.018,0.293,0.24,0.517,0.522,0.517
			c0.283-0.006,0.511-0.233,0.519-0.517l0.736-8.293L13.513,16.922L13.513,16.922z M16.121,11.402
			c-0.321,0.006-0.58,0.264-0.587,0.585l-0.608,12.83l0.608,8.291c0.01,0.318,0.268,0.574,0.587,0.58
			c0.309,0,0.567-0.258,0.587-0.584v0.004l0.685-8.291l-0.685-12.833C16.688,11.658,16.43,11.402,16.121,11.402z M19.223,8.445
			c-0.357,0.006-0.646,0.293-0.655,0.65l-0.567,15.767l0.567,8.24c0.01,0.355,0.299,0.641,0.655,0.646
			c0.356-0.008,0.644-0.294,0.653-0.649v0.004l0.643-8.24L19.876,9.095C19.867,8.739,19.579,8.453,19.223,8.445z M22.447,7.022
			c-0.396,0.003-0.715,0.323-0.72,0.718l-0.531,17.08l0.53,8.152c0.012,0.397,0.33,0.713,0.721,0.713
			c0.393-0.007,0.71-0.322,0.718-0.716v0.007l0.596-8.156L23.165,7.74C23.159,7.346,22.841,7.028,22.447,7.022z M26.433,7.164
			c-0.006-0.431-0.355-0.778-0.786-0.783c-0.432,0.002-0.783,0.351-0.786,0.783L24.37,24.82l0.492,8.105
			c0.006,0.43,0.356,0.777,0.786,0.778c0.431-0.005,0.78-0.353,0.786-0.783l0.552-8.101L26.433,7.164L26.433,7.164z M26.433,32.92
			v0.006V32.92z M28.871,6.767c-0.468,0.002-0.846,0.38-0.85,0.848L27.57,24.82l0.451,8.029c0.004,0.467,0.384,0.844,0.851,0.846
			c0.466,0,0.84-0.375,0.855-0.852v0.008l0.504-8.031L29.727,7.615C29.719,7.147,29.34,6.771,28.871,6.767L28.871,6.767z
			 M32.122,7.33c-0.506,0.002-0.916,0.411-0.92,0.917l-0.409,16.575l0.412,7.976c0.001,0.507,0.414,0.917,0.92,0.915
			c0.507-0.001,0.917-0.413,0.916-0.92l0,0v0.006l0.462-7.975l-0.462-16.58C33.038,7.739,32.627,7.331,32.122,7.33z M35.942,4.281
			c-0.325-0.219-0.75-0.221-1.077-0.006c-0.278,0.182-0.447,0.49-0.45,0.822l-0.007,0.186L34.04,24.818l0.374,7.93v0.032
			c0.01,0.216,0.091,0.422,0.231,0.587c0.185,0.227,0.461,0.358,0.754,0.359c0.267,0,0.51-0.112,0.688-0.291
			c0.178-0.178,0.29-0.42,0.297-0.691l0.041-0.786l0.374-7.136L36.384,5.097C36.378,4.77,36.213,4.465,35.942,4.281z M36.384,32.748
			v-0.004V32.748v-0.006V32.748z M39.195,2.413c-0.377-0.231-0.859-0.195-1.198,0.089c-0.243,0.198-0.385,0.494-0.388,0.807
			l-0.003,0.11l-0.43,21.407l0.22,3.957l0.214,3.852c0.006,0.57,0.478,1.042,1.05,1.042c0.572,0,1.044-0.472,1.052-1.05v0.008
			l0.466-7.809L39.712,3.309C39.705,2.941,39.51,2.603,39.195,2.413z M68.121,14.64c-1.27-0.001-2.525,0.251-3.696,0.742
			c-0.76-8.606-7.978-15.357-16.78-15.357c-2.09,0.003-4.162,0.389-6.112,1.14c-0.722,0.278-0.91,0.566-0.921,1.124v30.314
			c0.011,0.584,0.463,1.037,1.033,1.094c0.023,0.003,26.477,0,26.477,0c5.275,0,9.55-4.227,9.55-9.504
			C77.671,18.918,73.396,14.641,68.121,14.64L68.121,14.64z M7.642,39.443c-1.118-0.262-1.42-0.405-1.42-0.846
			c0-0.312,0.252-0.636,1.008-0.636c0.647,0,1.151,0.261,1.605,0.728l1.02-0.988c-0.667-0.696-1.474-1.112-2.574-1.112
			c-1.39,0-2.521,0.789-2.521,2.07c0,1.39,0.907,1.806,2.21,2.104c1.331,0.303,1.572,0.508,1.572,0.963
			c0,0.533-0.395,0.768-1.231,0.768c-0.677,0-1.311-0.234-1.806-0.811l-1.018,0.908c0.534,0.786,1.564,1.281,2.744,1.281
			c1.925,0,2.776-0.905,2.776-2.249C10.007,40.088,8.764,39.709,7.642,39.443L7.642,39.443z M14.141,36.589
			c-1.925,0-3.064,1.495-3.064,3.644c0,2.149,1.14,3.642,3.064,3.642c1.928,0,3.066-1.492,3.066-3.642
			C17.207,38.084,16.069,36.589,14.141,36.589z M14.141,42.473c-1.14,0-1.614-0.98-1.614-2.24s0.475-2.24,1.614-2.24
			c1.142,0,1.616,0.98,1.616,2.24C15.757,41.491,15.283,42.473,14.141,42.473z M22.908,40.667c0,1.127-0.555,1.827-1.45,1.827
			c-0.899,0-1.445-0.719-1.445-1.848V36.7h-1.411v3.965c0,2.058,1.15,3.207,2.856,3.207c1.794,0,2.862-1.181,2.862-3.228V36.7h-1.41
			v3.966L22.908,40.667z M30.414,39.688c0,0.393,0.018,1.282,0.018,1.543c-0.089-0.181-0.32-0.533-0.492-0.797l-2.504-3.73h-1.352
			v7.061h1.394v-3.107c0-0.395-0.021-1.282-0.021-1.543c0.092,0.18,0.323,0.533,0.492,0.798l2.596,3.853h1.26v-7.062h-1.391V39.688z
			 M35.831,36.701h-2.207v7.063h2.106c1.815,0,3.613-1.051,3.613-3.533C39.343,37.648,37.847,36.701,35.831,36.701z M35.73,42.391
			h-0.697v-4.315h0.75c1.492,0,2.11,0.714,2.11,2.155C37.892,41.523,37.213,42.391,35.73,42.391z M43.711,37.991
			c0.635,0,1.038,0.284,1.293,0.765l1.309-0.602c-0.444-0.92-1.248-1.566-2.58-1.566c-1.849,0-3.139,1.496-3.139,3.643
			c0,2.23,1.24,3.643,3.088,3.643c1.281,0,2.127-0.594,2.613-1.596l-1.193-0.707c-0.373,0.628-0.744,0.902-1.383,0.902
			c-1.058,0-1.675-0.973-1.675-2.242C42.044,38.92,42.652,37.991,43.711,37.991z M48.949,36.701h-1.412v7.063h4.246v-1.392h-2.836
			V36.7L48.949,36.701L48.949,36.701z M55.5,36.589c-1.925,0-3.066,1.495-3.066,3.644c0,2.149,1.142,3.642,3.066,3.642
			c1.928,0,3.07-1.492,3.07-3.642C58.57,38.084,57.428,36.589,55.5,36.589z M55.5,42.473c-1.139,0-1.613-0.98-1.613-2.24
			s0.475-2.24,1.613-2.24c1.143,0,1.613,0.98,1.613,2.24C57.113,41.491,56.643,42.473,55.5,42.473z M64.268,40.667
			c0,1.127-0.552,1.827-1.449,1.827c-0.899,0-1.445-0.719-1.445-1.848V36.7H59.96v3.965c0,2.058,1.149,3.207,2.856,3.207
			c1.795,0,2.865-1.181,2.865-3.228V36.7h-1.414V40.667L64.268,40.667z M69.656,36.701h-2.211v7.063h2.106
			c1.82,0,3.613-1.051,3.613-3.533C73.165,37.648,71.676,36.701,69.656,36.701z M69.552,42.391h-0.694v-4.315h0.748
			c1.492,0,2.104,0.714,2.104,2.155C71.711,41.523,71.039,42.391,69.552,42.391z"/>
	</g>
	<defs>
		<filter id="Adobe_OpacityMaskFilter" filterUnits="userSpaceOnUse" x="-73" y="-90" width="224" height="223">
			<feColorMatrix  type="matrix" values="1 0 0 0 0  0 1 0 0 0  0 0 1 0 0  0 0 0 1 0"/>
		</filter>
	</defs>
	<mask maskUnits="userSpaceOnUse" x="-73" y="-90" width="224" height="223" id="b">
		<g filter="url(#Adobe_OpacityMaskFilter)">
			<path id="a" fill="#FFFFFF" d="M3.77,17.521c-0.167,0-0.303,0.134-0.324,0.318l-0.765,6.972l0.765,6.819
				c0.021,0.181,0.157,0.313,0.323,0.313c0.164,0,0.297-0.129,0.324-0.313l0.866-6.819l-0.866-6.976
				C4.066,17.652,3.933,17.521,3.77,17.521L3.77,17.521z M0.897,20.194c-0.163,0-0.29,0.124-0.311,0.302l-0.57,4.314l0.57,4.239
				c0.02,0.177,0.148,0.302,0.311,0.302c0.157,0,0.285-0.125,0.311-0.302l0.67-4.239l-0.67-4.314
				C1.182,20.318,1.054,20.194,0.897,20.194L0.897,20.194z M6.817,16.154c-0.204,0-0.368,0.16-0.389,0.382l-0.723,8.274l0.723,7.971
				c0.021,0.222,0.185,0.382,0.39,0.382c0.2,0,0.364-0.16,0.39-0.38l0.822-7.973l-0.821-8.274
				C7.182,16.314,7.019,16.154,6.817,16.154z M9.893,15.864c-0.246,0.005-0.445,0.201-0.454,0.447l-0.686,8.5l0.686,8.226
				c0.009,0.245,0.208,0.442,0.454,0.446c0.24,0,0.435-0.191,0.456-0.446l0.778-8.224l-0.778-8.504
				c-0.012-0.245-0.211-0.439-0.456-0.445V15.864z M13.513,16.922c-0.009-0.281-0.237-0.505-0.518-0.51
				c-0.282,0-0.504,0.22-0.522,0.516l-0.647,7.883l0.647,8.293c0.018,0.293,0.24,0.517,0.522,0.517
				c0.283-0.006,0.511-0.233,0.519-0.517l0.736-8.293L13.513,16.922L13.513,16.922z M16.121,11.402
				c-0.321,0.006-0.58,0.264-0.587,0.585l-0.608,12.83l0.608,8.291c0.01,0.318,0.268,0.574,0.587,0.58
				c0.309,0,0.567-0.258,0.587-0.584v0.004l0.685-8.291l-0.685-12.833C16.688,11.658,16.43,11.402,16.121,11.402z M19.223,8.445
				c-0.357,0.006-0.646,0.293-0.655,0.65l-0.567,15.767l0.567,8.24c0.01,0.355,0.299,0.641,0.655,0.646
				c0.356-0.008,0.644-0.294,0.653-0.649v0.004l0.643-8.24L19.876,9.095C19.867,8.739,19.579,8.453,19.223,8.445z M22.447,7.022
				c-0.396,0.003-0.715,0.323-0.72,0.718l-0.531,17.08l0.53,8.152c0.012,0.397,0.33,0.713,0.721,0.713
				c0.393-0.007,0.71-0.322,0.718-0.716v0.007l0.596-8.156L23.165,7.74C23.159,7.346,22.841,7.028,22.447,7.022z M26.433,7.164
				c-0.006-0.431-0.355-0.778-0.786-0.783c-0.432,0.002-0.783,0.351-0.786,0.783L24.37,24.82l0.492,8.105
				c0.006,0.43,0.356,0.777,0.786,0.778c0.431-0.005,0.78-0.353,0.786-0.783l0.552-8.101L26.433,7.164L26.433,7.164z M26.433,32.92
				v0.006V32.92z M28.871,6.767c-0.468,0.002-0.846,0.38-0.85,0.848L27.57,24.82l0.451,8.029c0.004,0.467,0.384,0.844,0.851,0.846
				c0.466,0,0.84-0.375,0.855-0.852v0.008l0.504-8.031L29.727,7.615C29.719,7.147,29.34,6.771,28.871,6.767L28.871,6.767z
				 M32.122,7.33c-0.506,0.002-0.916,0.411-0.92,0.917l-0.409,16.575l0.412,7.976c0.001,0.507,0.414,0.917,0.92,0.915
				c0.507-0.001,0.917-0.413,0.916-0.92l0,0v0.006l0.462-7.975l-0.462-16.58C33.038,7.739,32.627,7.331,32.122,7.33z M35.942,4.281
				c-0.325-0.219-0.75-0.221-1.077-0.006c-0.278,0.182-0.447,0.49-0.45,0.822l-0.007,0.186L34.04,24.818l0.374,7.93v0.032
				c0.01,0.216,0.091,0.422,0.231,0.587c0.185,0.227,0.461,0.358,0.754,0.359c0.267,0,0.51-0.112,0.688-0.291
				c0.178-0.178,0.29-0.42,0.297-0.691l0.041-0.786l0.374-7.136L36.384,5.097C36.378,4.77,36.213,4.465,35.942,4.281z
				 M36.384,32.748v-0.004V32.748v-0.006V32.748z M39.195,2.413c-0.377-0.231-0.859-0.195-1.198,0.089
				c-0.243,0.198-0.385,0.494-0.388,0.807l-0.003,0.11l-0.43,21.407l0.22,3.957l0.214,3.852c0.006,0.57,0.478,1.042,1.05,1.042
				c0.572,0,1.044-0.472,1.052-1.05v0.008l0.466-7.809L39.712,3.309C39.705,2.941,39.51,2.603,39.195,2.413z M68.121,14.64
				c-1.27-0.001-2.525,0.251-3.696,0.742c-0.76-8.606-7.978-15.357-16.78-15.357c-2.09,0.003-4.162,0.389-6.112,1.14
				c-0.722,0.278-0.91,0.566-0.921,1.124v30.314c0.011,0.584,0.463,1.037,1.033,1.094c0.023,0.003,26.477,0,26.477,0
				c5.275,0,9.55-4.227,9.55-9.504C77.671,18.918,73.396,14.641,68.121,14.64L68.121,14.64z M7.642,39.443
				c-1.118-0.262-1.42-0.405-1.42-0.846c0-0.312,0.252-0.636,1.008-0.636c0.647,0,1.151,0.261,1.605,0.728l1.02-0.988
				c-0.667-0.696-1.474-1.112-2.574-1.112c-1.39,0-2.521,0.789-2.521,2.07c0,1.39,0.907,1.806,2.21,2.104
				c1.331,0.303,1.572,0.508,1.572,0.963c0,0.533-0.395,0.768-1.231,0.768c-0.677,0-1.311-0.234-1.806-0.811l-1.018,0.908
				c0.534,0.786,1.564,1.281,2.744,1.281c1.925,0,2.776-0.905,2.776-2.249C10.007,40.088,8.764,39.709,7.642,39.443L7.642,39.443z
				 M14.141,36.589c-1.925,0-3.064,1.495-3.064,3.644c0,2.149,1.14,3.642,3.064,3.642c1.928,0,3.066-1.492,3.066-3.642
				C17.207,38.084,16.069,36.589,14.141,36.589z M14.141,42.473c-1.14,0-1.614-0.98-1.614-2.24s0.475-2.24,1.614-2.24
				c1.142,0,1.616,0.98,1.616,2.24C15.757,41.491,15.283,42.473,14.141,42.473z M22.908,40.667c0,1.127-0.555,1.827-1.45,1.827
				c-0.899,0-1.445-0.719-1.445-1.848V36.7h-1.411v3.965c0,2.058,1.15,3.207,2.856,3.207c1.794,0,2.862-1.181,2.862-3.228V36.7
				h-1.41v3.966L22.908,40.667z M30.414,39.688c0,0.393,0.018,1.282,0.018,1.543c-0.089-0.181-0.32-0.533-0.492-0.797l-2.504-3.73
				h-1.352v7.061h1.394v-3.107c0-0.395-0.021-1.282-0.021-1.543c0.092,0.18,0.323,0.533,0.492,0.798l2.596,3.853h1.26v-7.062h-1.391
				V39.688z M35.831,36.701h-2.207v7.063h2.106c1.815,0,3.613-1.051,3.613-3.533C39.343,37.648,37.847,36.701,35.831,36.701z
				 M35.73,42.391h-0.697v-4.315h0.75c1.492,0,2.11,0.714,2.11,2.155C37.892,41.523,37.213,42.391,35.73,42.391z M43.711,37.991
				c0.635,0,1.038,0.284,1.293,0.765l1.309-0.602c-0.444-0.92-1.248-1.566-2.58-1.566c-1.849,0-3.139,1.496-3.139,3.643
				c0,2.23,1.24,3.643,3.088,3.643c1.281,0,2.127-0.594,2.613-1.596l-1.193-0.707c-0.373,0.628-0.744,0.902-1.383,0.902
				c-1.058,0-1.675-0.973-1.675-2.242C42.044,38.92,42.652,37.991,43.711,37.991z M48.949,36.701h-1.412v7.063h4.246v-1.392h-2.836
				V36.7L48.949,36.701L48.949,36.701z M55.5,36.589c-1.925,0-3.066,1.495-3.066,3.644c0,2.149,1.142,3.642,3.066,3.642
				c1.928,0,3.07-1.492,3.07-3.642C58.57,38.084,57.428,36.589,55.5,36.589z M55.5,42.473c-1.139,0-1.613-0.98-1.613-2.24
				s0.475-2.24,1.613-2.24c1.143,0,1.613,0.98,1.613,2.24C57.113,41.491,56.643,42.473,55.5,42.473z M64.268,40.667
				c0,1.127-0.552,1.827-1.449,1.827c-0.899,0-1.445-0.719-1.445-1.848V36.7H59.96v3.965c0,2.058,1.149,3.207,2.856,3.207
				c1.795,0,2.865-1.181,2.865-3.228V36.7h-1.414V40.667L64.268,40.667z M69.656,36.701h-2.211v7.063h2.106
				c1.82,0,3.613-1.051,3.613-3.533C73.165,37.648,71.676,36.701,69.656,36.701z M69.552,42.391h-0.694v-4.315h0.748
				c1.492,0,2.104,0.714,2.104,2.155C71.711,41.523,71.039,42.391,69.552,42.391z"/>
		</g>
	</mask>
	<g mask="url(#b)">
		<path fill="#FFFFFF" d="M-73-90h224v223H-73V-90z"/>
	</g>
</g>
</svg>
