<svg xmlns="http://www.w3.org/2000/svg" xmlns:xlink="http://www.w3.org/1999/xlink" width="78" height="44" viewBox="0 0 78 44">
    <defs>
        <path id="a" d="M3.77 17.521c-.167 0-.303.134-.324.318l-.765 6.972.765 6.819c.021.18.157.314.323.314.164 0 .297-.13.324-.314l.866-6.819-.866-6.976c-.027-.183-.16-.314-.324-.314zM.897 20.194c-.163 0-.29.124-.311.302l-.57 4.315.57 4.239c.02.177.148.302.311.302.157 0 .285-.125.311-.302l.67-4.239-.67-4.315c-.026-.178-.154-.302-.31-.302zm5.92-4.04c-.204 0-.368.16-.389.382l-.723 8.275.723 7.97c.021.222.185.382.39.382.2 0 .364-.16.39-.38l.822-7.972-.821-8.275c-.027-.222-.19-.382-.392-.382zm3.076-.29a.464.464 0 0 0-.454.447l-.686 8.5.686 8.225a.464.464 0 0 0 .454.447c.24 0 .435-.192.456-.447l.778-8.224-.778-8.504a.468.468 0 0 0-.456-.445zm3.62 1.058a.527.527 0 0 0-.518-.51c-.282 0-.504.22-.522.516l-.647 7.883.647 8.293c.018.293.24.516.522.516a.53.53 0 0 0 .519-.516l.736-8.293-.736-7.889zm2.608-5.52a.598.598 0 0 0-.587.585l-.608 12.83.608 8.29a.6.6 0 0 0 .587.581c.309 0 .567-.259.587-.585v.004l.685-8.29-.685-12.833c-.02-.326-.278-.582-.587-.582zm3.102-2.957a.666.666 0 0 0-.655.65l-.567 15.767.567 8.239a.665.665 0 0 0 .655.646.668.668 0 0 0 .653-.65v.004l.643-8.24-.643-15.766a.668.668 0 0 0-.653-.65zm3.224-1.423a.726.726 0 0 0-.72.718l-.531 17.08.53 8.153c.012.397.33.712.721.712a.73.73 0 0 0 .718-.715v.007l.596-8.157-.596-17.08a.73.73 0 0 0-.718-.718zm3.986.142a.795.795 0 0 0-.786-.783.789.789 0 0 0-.786.783L24.37 24.82l.492 8.106c.006.43.356.777.786.778a.794.794 0 0 0 .786-.783l.552-8.1-.552-17.657zm0 25.756v.006-.006zm2.438-26.153a.855.855 0 0 0-.85.848L27.57 24.82l.451 8.029a.854.854 0 0 0 .851.846c.466 0 .84-.375.855-.851v.008l.504-8.032-.504-17.205a.862.862 0 0 0-.855-.848zm3.251.563a.924.924 0 0 0-.92.917l-.409 16.575.412 7.976a.918.918 0 0 0 1.836-.005v.006l.462-7.975-.462-16.58a.92.92 0 0 0-.919-.914zm3.82-3.049a.974.974 0 0 0-1.077-.006.996.996 0 0 0-.45.822l-.007.186-.368 19.536.374 7.929v.032a.982.982 0 0 0 .231.587.978.978 0 0 0 .754.36c.267 0 .51-.113.688-.291.178-.178.29-.421.297-.692l.041-.786.374-7.136-.415-19.725a1.01 1.01 0 0 0-.442-.816zm.442 28.467v-.004.004-.006.006zm2.811-30.335a1.028 1.028 0 0 0-1.198.089 1.056 1.056 0 0 0-.388.807l-.003.11-.43 21.407.22 3.957.214 3.852c.006.57.478 1.042 1.05 1.042.572 0 1.044-.472 1.052-1.05v.008l.466-7.809-.466-21.517a1.07 1.07 0 0 0-.517-.896zM68.121 14.64a9.53 9.53 0 0 0-3.696.742C63.665 6.776 56.447.025 47.645.025c-2.09.003-4.163.389-6.113 1.14-.721.278-.91.566-.92 1.124v30.314c.01.584.462 1.038 1.032 1.094.024.003 26.477 0 26.477 0 5.276 0 9.55-4.226 9.55-9.503 0-5.276-4.274-9.553-9.55-9.553zM7.642 39.444c-1.118-.263-1.42-.406-1.42-.847 0-.311.252-.635 1.008-.635.647 0 1.151.26 1.605.727l1.02-.988c-.667-.696-1.474-1.112-2.574-1.112-1.39 0-2.521.789-2.521 2.07 0 1.39.907 1.806 2.21 2.105 1.331.303 1.572.508 1.572.962 0 .534-.395.768-1.231.768-.677 0-1.311-.234-1.806-.81l-1.018.908c.534.786 1.564 1.281 2.744 1.281 1.925 0 2.776-.905 2.776-2.249 0-1.536-1.243-1.915-2.365-2.18zm6.499-2.855c-1.925 0-3.064 1.495-3.064 3.643 0 2.15 1.14 3.642 3.064 3.642 1.928 0 3.066-1.492 3.066-3.642 0-2.148-1.138-3.643-3.066-3.643zm0 5.884c-1.14 0-1.614-.981-1.614-2.241 0-1.26.475-2.24 1.614-2.24 1.142 0 1.616.98 1.616 2.24 0 1.259-.474 2.241-1.616 2.241zm8.767-1.806c0 1.127-.555 1.827-1.45 1.827-.899 0-1.445-.718-1.445-1.848V36.7h-1.411v3.965c0 2.058 1.15 3.207 2.856 3.207 1.794 0 2.862-1.18 2.862-3.227v-3.945H22.91v3.966zm7.506-.979c0 .392.018 1.282.018 1.543-.089-.181-.32-.534-.492-.798l-2.504-3.73h-1.352v7.06h1.394v-3.107c0-.394-.021-1.282-.021-1.543.092.18.323.534.492.798l2.596 3.853h1.26v-7.062h-1.391v2.986zm5.417-2.987h-2.207v7.062h2.106c1.815 0 3.613-1.05 3.613-3.533 0-2.582-1.496-3.529-3.512-3.529zm-.101 5.69h-.697v-4.316h.75c1.492 0 2.11.714 2.11 2.156-.001 1.293-.68 2.16-2.163 2.16zm7.981-4.4c.634 0 1.038.285 1.293.765l1.308-.601c-.444-.92-1.248-1.567-2.58-1.567-1.848 0-3.138 1.496-3.138 3.643 0 2.23 1.24 3.642 3.087 3.642 1.282 0 2.127-.593 2.614-1.596l-1.193-.706c-.374.627-.745.902-1.383.902-1.058 0-1.675-.973-1.675-2.242 0-1.311.608-2.24 1.667-2.24zm5.238-1.29h-1.412v7.062h4.246v-1.391h-2.836V36.7h.002zm6.551-.112c-1.925 0-3.067 1.495-3.067 3.643 0 2.15 1.142 3.642 3.067 3.642 1.928 0 3.07-1.492 3.07-3.642 0-2.148-1.142-3.643-3.07-3.643zm0 5.884c-1.139 0-1.614-.981-1.614-2.241 0-1.26.475-2.24 1.614-2.24 1.142 0 1.614.98 1.614 2.24 0 1.259-.472 2.241-1.614 2.241zm8.768-1.806c0 1.127-.552 1.827-1.45 1.827-.899 0-1.445-.718-1.445-1.848V36.7H59.96v3.965c0 2.058 1.15 3.207 2.857 3.207 1.794 0 2.864-1.18 2.864-3.227v-3.945h-1.414v3.966zm5.388-3.966h-2.21v7.062h2.106c1.82 0 3.613-1.05 3.613-3.533 0-2.582-1.489-3.529-3.509-3.529zm-.104 5.69h-.694v-4.316h.747c1.492 0 2.105.714 2.105 2.156.001 1.293-.671 2.16-2.158 2.16z"/>
    </defs>
    <g fill="none" fill-rule="evenodd">
        <mask id="b" fill="#fff">
            <use xlink:href="#a"/>
        </mask>
        <use fill="#666" fill-rule="nonzero" xlink:href="#a"/>
        <g fill="#23262C" mask="url(#b)">
            <path d="M-73-90h224v223H-73z"/>
        </g>
    </g>
</svg>
