<?xml version="1.0" encoding="utf-8"?>
<!-- Generator: Adobe Illustrator 16.0.0, SVG Export Plug-In . SVG Version: 6.00 Build 0)  -->
<!DOCTYPE svg PUBLIC "-//W3C//DTD SVG 1.1//EN" "http://www.w3.org/Graphics/SVG/1.1/DTD/svg11.dtd">
<svg version="1.1" id="Layer_1" xmlns="http://www.w3.org/2000/svg" xmlns:xlink="http://www.w3.org/1999/xlink" x="0px" y="0px"
	 width="32px" height="14px" viewBox="0 0 32 14" enable-background="new 0 0 32 14" xml:space="preserve">
<g>
	<g>
		<path id="a_1_" fill="#23262C" d="M15.358,1.835v11.819h12.748v-0.014C30.79,13.47,32,11.802,32,9.77
			c0-2.146-1.622-3.881-3.807-3.881c-0.56,0-1.021,0.113-1.508,0.323c-0.35-3.406-3.24-6.07-6.799-6.07
			C18.146,0.141,16.564,0.781,15.358,1.835L15.358,1.835z M14.085,3.315c-0.441-0.262-0.916-0.464-1.41-0.601v10.94h2.012V2.507
			C14.467,2.76,14.265,3.034,14.085,3.315L14.085,3.315z M10.661,2.529v11.125h1.343V2.571c-0.28-0.042-0.563-0.062-0.847-0.06
			C10.989,2.511,10.823,2.518,10.661,2.529z M7.978,3.467v10.188h1.341V2.81C8.84,2.97,8.389,3.194,7.978,3.467z M5.574,7.14
			c-0.091-0.057-0.182-0.114-0.28-0.163v6.677h1.341V4.726C6.091,5.433,5.728,6.261,5.574,7.14L5.574,7.14z M2.61,6.7v6.819
			c0.318,0.088,0.652,0.135,0.996,0.135h0.347V6.578c-0.451-0.043-0.906-0.003-1.342,0.12L2.61,6.7z M0,10.109
			c0,1.08,0.492,2.048,1.269,2.701V7.407C0.466,8.074,0.001,9.064,0,10.109L0,10.109z"/>
	</g>
	<defs>
		<filter id="Adobe_OpacityMaskFilter" filterUnits="userSpaceOnUse" x="-34" y="-43" width="100" height="100">
			<feColorMatrix  type="matrix" values="1 0 0 0 0  0 1 0 0 0  0 0 1 0 0  0 0 0 1 0"/>
		</filter>
	</defs>
	<mask maskUnits="userSpaceOnUse" x="-34" y="-43" width="100" height="100" id="b">
		<g filter="url(#Adobe_OpacityMaskFilter)">
			<path id="a" fill="#FFFFFF" d="M15.358,1.835v11.819h12.748v-0.014C30.79,13.47,32,11.802,32,9.77
				c0-2.146-1.622-3.881-3.807-3.881c-0.56,0-1.021,0.113-1.508,0.323c-0.35-3.406-3.24-6.07-6.799-6.07
				C18.146,0.141,16.564,0.781,15.358,1.835L15.358,1.835z M14.085,3.315c-0.441-0.262-0.916-0.464-1.41-0.601v10.94h2.012V2.507
				C14.467,2.76,14.265,3.034,14.085,3.315L14.085,3.315z M10.661,2.529v11.125h1.343V2.571c-0.28-0.042-0.563-0.062-0.847-0.06
				C10.989,2.511,10.823,2.518,10.661,2.529z M7.978,3.467v10.188h1.341V2.81C8.84,2.97,8.389,3.194,7.978,3.467z M5.574,7.14
				c-0.091-0.057-0.182-0.114-0.28-0.163v6.677h1.341V4.726C6.091,5.433,5.728,6.261,5.574,7.14L5.574,7.14z M2.61,6.7v6.819
				c0.318,0.088,0.652,0.135,0.996,0.135h0.347V6.578c-0.451-0.043-0.906-0.003-1.342,0.12L2.61,6.7z M0,10.109
				c0,1.08,0.492,2.048,1.269,2.701V7.407C0.466,8.074,0.001,9.064,0,10.109L0,10.109z"/>
		</g>
	</mask>
	<g mask="url(#b)">
		<path fill="#FF7800" d="M-34-43H66V57H-34V-43z"/>
	</g>
</g>
</svg>
