<?xml version="1.0" encoding="utf-8"?>
<!-- Generator: Adobe Illustrator 16.0.0, SVG Export Plug-In . SVG Version: 6.00 Build 0)  -->
<!DOCTYPE svg PUBLIC "-//W3C//DTD SVG 1.1//EN" "http://www.w3.org/Graphics/SVG/1.1/DTD/svg11.dtd">
<svg version="1.1" id="Layer_1" xmlns="http://www.w3.org/2000/svg" xmlns:xlink="http://www.w3.org/1999/xlink" x="0px" y="0px"
	 width="32px" height="32px" viewBox="0 0 32 32" enable-background="new 0 0 32 32" xml:space="preserve">
<g>
	<path fill="none" d="M0,0h32v32H0V0z"/>
	<g>
		<g>
			<path id="a_1_" fill="#23262C" d="M25.439,14.24C20.32,11.2,11.76,10.88,6.88,12.4c-0.8,0.24-1.6-0.24-1.84-0.96
				C4.8,10.64,5.28,9.84,6,9.6c5.68-1.68,15.04-1.36,20.96,2.16c0.72,0.4,0.96,1.36,0.56,2.08C27.12,14.4,26.16,14.64,25.439,14.24z
				 M25.279,18.72c-0.399,0.561-1.119,0.8-1.68,0.4c-4.32-2.64-10.879-3.44-15.919-1.84c-0.64,0.159-1.36-0.16-1.52-0.8
				c-0.16-0.64,0.16-1.36,0.8-1.52c5.84-1.76,13.04-0.88,18,2.16C25.439,17.359,25.68,18.16,25.279,18.72z M23.359,23.12
				C23.04,23.6,22.48,23.76,22,23.439c-3.76-2.319-8.48-2.799-14.08-1.52c-0.56,0.16-1.04-0.24-1.2-0.72
				c-0.16-0.56,0.24-1.04,0.72-1.2c6.08-1.359,11.36-0.8,15.52,1.76C23.52,22,23.6,22.641,23.359,23.12z M16,0C7.2,0,0,7.2,0,16
				s7.2,16,16,16s16-7.2,16-16S24.88,0,16,0z"/>
		</g>
		<defs>
			<filter id="Adobe_OpacityMaskFilter" filterUnits="userSpaceOnUse" x="-34" y="-34" width="100" height="100">
				<feColorMatrix  type="matrix" values="1 0 0 0 0  0 1 0 0 0  0 0 1 0 0  0 0 0 1 0"/>
			</filter>
		</defs>
		<mask maskUnits="userSpaceOnUse" x="-34" y="-34" width="100" height="100" id="b">
			<g filter="url(#Adobe_OpacityMaskFilter)">
				<path id="a" fill="#FFFFFF" d="M25.439,14.24C20.32,11.2,11.76,10.88,6.88,12.4c-0.8,0.24-1.6-0.24-1.84-0.96
					C4.8,10.64,5.28,9.84,6,9.6c5.68-1.68,15.04-1.36,20.96,2.16c0.72,0.4,0.96,1.36,0.56,2.08C27.12,14.4,26.16,14.64,25.439,14.24
					z M25.279,18.72c-0.399,0.561-1.119,0.8-1.68,0.4c-4.32-2.64-10.879-3.44-15.919-1.84c-0.64,0.159-1.36-0.16-1.52-0.8
					c-0.16-0.64,0.16-1.36,0.8-1.52c5.84-1.76,13.04-0.88,18,2.16C25.439,17.359,25.68,18.16,25.279,18.72z M23.359,23.12
					C23.04,23.6,22.48,23.76,22,23.439c-3.76-2.319-8.48-2.799-14.08-1.52c-0.56,0.16-1.04-0.24-1.2-0.72
					c-0.16-0.56,0.24-1.04,0.72-1.2c6.08-1.359,11.36-0.8,15.52,1.76C23.52,22,23.6,22.641,23.359,23.12z M16,0C7.2,0,0,7.2,0,16
					s7.2,16,16,16s16-7.2,16-16S24.88,0,16,0z"/>
			</g>
		</mask>
		<g mask="url(#b)">
			<path fill="#00E370" d="M-34-34H66V66H-34V-34z"/>
		</g>
	</g>
</g>
</svg>
