<svg xmlns="http://www.w3.org/2000/svg" xmlns:xlink="http://www.w3.org/1999/xlink" width="102" height="32" viewBox="0 0 102 32">
    <defs>
        <path id="a" d="M15.869 0C7.105 0 0 7.164 0 16c0 8.837 7.105 16 15.869 16 8.765 0 15.869-7.163 15.869-16 0-8.836-7.104-16-15.87-16zm7.277 23.077a.984.984 0 0 1-1.36.33c-3.726-2.294-8.417-2.814-13.94-1.542a.99.99 0 0 1-1.185-.75.996.996 0 0 1 .744-1.195c6.045-1.392 11.23-.793 15.413 1.785.466.288.614.902.328 1.372zm1.942-4.357a1.231 1.231 0 0 1-1.701.411c-4.266-2.643-10.768-3.409-15.813-1.865a1.237 1.237 0 0 1-1.544-.83 1.251 1.251 0 0 1 .825-1.557c5.763-1.763 12.928-.909 17.826 2.126.582.361.766 1.13.407 1.715zm.167-4.537c-5.114-3.062-13.552-3.344-18.435-1.85a1.482 1.482 0 0 1-1.851-.997 1.5 1.5 0 0 1 .989-1.867c5.605-1.716 14.924-1.384 20.812 2.14.707.423.938 1.34.52 2.051a1.476 1.476 0 0 1-2.034.523zm17.919.587c-2.74-.658-3.227-1.12-3.227-2.092 0-.918.856-1.536 2.131-1.536 1.236 0 2.46.47 3.745 1.435.038.029.087.04.134.033a.177.177 0 0 0 .12-.074l1.338-1.901a.182.182 0 0 0-.034-.246c-1.53-1.237-3.25-1.838-5.263-1.838-2.958 0-5.025 1.79-5.025 4.351 0 2.747 1.783 3.72 4.864 4.47 2.62.609 3.064 1.119 3.064 2.03 0 1.011-.894 1.64-2.334 1.64-1.6 0-2.905-.545-4.364-1.817a.177.177 0 0 0-.254.02l-1.501 1.799a.183.183 0 0 0 .017.252c1.698 1.529 3.786 2.335 6.041 2.335 3.187 0 5.247-1.756 5.247-4.475.006-2.294-1.357-3.565-4.694-4.383l-.005-.003zm11.911-2.724c-1.381 0-2.514.549-3.45 1.673v-1.266a.18.18 0 0 0-.178-.18h-2.454a.18.18 0 0 0-.179.18v14.063c0 .1.08.181.179.181h2.454a.18.18 0 0 0 .178-.181v-4.439c.936 1.057 2.069 1.575 3.45 1.575 2.568 0 5.168-1.993 5.168-5.803.004-3.81-2.596-5.803-5.166-5.803h-.002zm2.314 5.803c0 1.94-1.184 3.294-2.882 3.294-1.677 0-2.943-1.416-2.943-3.294 0-1.878 1.266-3.293 2.943-3.293 1.67 0 2.882 1.384 2.882 3.293zm9.515-5.803c-3.307 0-5.897 2.567-5.897 5.845 0 3.243 2.573 5.782 5.857 5.782 3.318 0 5.916-2.558 5.916-5.824 0-3.254-2.581-5.803-5.876-5.803zm0 9.116c-1.759 0-3.085-1.425-3.085-3.314 0-1.897 1.28-3.273 3.045-3.273 1.77 0 3.104 1.425 3.104 3.315 0 1.897-1.289 3.272-3.064 3.272zm12.936-8.89h-2.7V9.49a.18.18 0 0 0-.178-.181h-2.454a.181.181 0 0 0-.18.181v2.783h-1.179a.18.18 0 0 0-.178.181v2.126c0 .1.08.182.178.182h1.179v5.501c0 2.222 1.097 3.35 3.263 3.35.88 0 1.609-.184 2.297-.577a.177.177 0 0 0 .09-.157v-2.025a.18.18 0 0 0-.085-.153.173.173 0 0 0-.174-.008c-.472.24-.928.35-1.44.35-.787 0-1.139-.361-1.139-1.168v-5.112h2.7a.18.18 0 0 0 .178-.182v-2.125a.175.175 0 0 0-.176-.182h-.002zm9.407.01v-.34c0-1.006.383-1.455 1.24-1.455.51 0 .922.103 1.382.257a.176.176 0 0 0 .161-.025.18.18 0 0 0 .074-.147V8.487c0-.08-.049-.15-.127-.173a6.67 6.67 0 0 0-2.039-.296c-2.264 0-3.464 1.287-3.464 3.72v.523h-1.178a.181.181 0 0 0-.18.181v2.137c0 .1.081.182.18.182h1.178v8.484a.18.18 0 0 0 .18.181h2.453c.1 0 .18-.08.18-.181V14.76h2.29l3.51 8.484c-.398.89-.79 1.068-1.325 1.068-.432 0-.888-.13-1.353-.388a.194.194 0 0 0-.142-.013.18.18 0 0 0-.106.097l-.832 1.84a.181.181 0 0 0 .078.235c.868.474 1.65.676 2.619.676 1.811 0 2.814-.852 3.695-3.14l4.256-11.09a.178.178 0 0 0-.019-.168.175.175 0 0 0-.146-.078h-2.554a.18.18 0 0 0-.17.121l-2.618 7.534-2.865-7.539a.179.179 0 0 0-.167-.116h-4.191v-.001zm-5.454-.01H81.35a.181.181 0 0 0-.18.181v10.792a.18.18 0 0 0 .18.181h2.454a.18.18 0 0 0 .18-.181v-10.79a.18.18 0 0 0-.18-.182zM82.59 7.358c-.972 0-1.76.793-1.76 1.773 0 .98.788 1.775 1.76 1.775s1.759-.794 1.759-1.775c0-.98-.788-1.773-1.759-1.773z"/>
    </defs>
    <g fill="none" fill-rule="evenodd">
        <mask id="b" fill="#fff">
            <use xlink:href="#a"/>
        </mask>
        <use fill="#1ED760" fill-rule="nonzero" xlink:href="#a"/>
        <g fill="#23262C" mask="url(#b)">
            <path d="M-34.335-96h224v223h-224z"/>
        </g>
    </g>
</svg>
