<?xml version="1.0" encoding="utf-8"?>
<!-- Generator: Adobe Illustrator 16.0.0, SVG Export Plug-In . SVG Version: 6.00 Build 0)  -->
<!DOCTYPE svg PUBLIC "-//W3C//DTD SVG 1.1//EN" "http://www.w3.org/Graphics/SVG/1.1/DTD/svg11.dtd">
<svg version="1.1" id="Layer_1" xmlns="http://www.w3.org/2000/svg" xmlns:xlink="http://www.w3.org/1999/xlink" x="0px" y="0px"
	 width="102px" height="32px" viewBox="0 0 102 32" enable-background="new 0 0 102 32" xml:space="preserve">
<g>
	<g>
		<path id="a_1_" fill="#1ED760" d="M15.869,0C7.105,0,0,7.164,0,16c0,8.837,7.105,16,15.869,16c8.765,0,15.869-7.163,15.869-16
			C31.738,7.164,24.634,0,15.869,0L15.869,0z M23.146,23.077c-0.28,0.466-0.885,0.616-1.351,0.336
			c-0.003-0.002-0.006-0.004-0.009-0.006c-3.726-2.294-8.417-2.814-13.94-1.542c-0.533,0.121-1.063-0.214-1.185-0.747
			c0-0.001,0-0.002,0-0.003c-0.125-0.535,0.208-1.07,0.744-1.195c6.045-1.393,11.23-0.793,15.413,1.785
			C23.284,21.993,23.432,22.607,23.146,23.077z M25.088,18.72c-0.351,0.583-1.108,0.77-1.69,0.418
			c-0.003-0.002-0.007-0.005-0.011-0.007c-4.266-2.643-10.768-3.409-15.813-1.865c-0.654,0.198-1.345-0.171-1.543-0.825
			c0-0.001-0.001-0.003-0.001-0.005c-0.199-0.658,0.169-1.353,0.825-1.557c5.763-1.763,12.928-0.909,17.826,2.126
			C25.263,17.366,25.447,18.135,25.088,18.72z M25.255,14.183c-5.114-3.062-13.552-3.344-18.435-1.85
			c-0.783,0.237-1.611-0.205-1.848-0.988c-0.001-0.003-0.002-0.006-0.002-0.009C4.73,10.548,5.171,9.714,5.958,9.469
			c5.605-1.716,14.924-1.384,20.812,2.14c0.707,0.423,0.938,1.34,0.52,2.051c-0.411,0.704-1.314,0.942-2.019,0.532
			C25.267,14.189,25.261,14.186,25.255,14.183L25.255,14.183z M43.174,14.77c-2.74-0.658-3.227-1.12-3.227-2.092
			c0-0.918,0.856-1.536,2.131-1.536c1.236,0,2.46,0.47,3.745,1.435c0.038,0.029,0.087,0.04,0.134,0.033
			c0.048-0.007,0.092-0.034,0.12-0.074l1.338-1.901c0.055-0.078,0.04-0.186-0.034-0.246c-1.53-1.237-3.25-1.838-5.263-1.838
			c-2.958,0-5.025,1.79-5.025,4.351c0,2.747,1.783,3.72,4.864,4.47c2.62,0.608,3.064,1.119,3.064,2.03
			c0,1.011-0.894,1.64-2.334,1.64c-1.6,0-2.905-0.545-4.364-1.817c-0.073-0.064-0.185-0.058-0.25,0.016
			c-0.001,0.002-0.003,0.003-0.004,0.005l-1.501,1.799c-0.063,0.075-0.055,0.187,0.017,0.252c1.698,1.529,3.786,2.335,6.041,2.335
			c3.187,0,5.247-1.756,5.247-4.475c0.006-2.295-1.357-3.565-4.694-4.383L43.174,14.77z M55.085,12.046
			c-1.381,0-2.515,0.549-3.45,1.673v-1.266c0-0.099-0.079-0.179-0.178-0.18h-2.454c-0.099,0-0.179,0.081-0.179,0.18v14.063
			c0,0.101,0.08,0.182,0.179,0.182h2.454c0.1-0.002,0.179-0.082,0.178-0.182v-4.438c0.936,1.057,2.069,1.575,3.45,1.575
			c2.567,0,5.168-1.993,5.168-5.803c0.004-3.811-2.596-5.804-5.166-5.804H55.085z M57.398,17.85c0,1.939-1.184,3.293-2.881,3.293
			c-1.678,0-2.943-1.416-2.943-3.293c0-1.878,1.266-3.293,2.943-3.293C56.188,14.556,57.398,15.94,57.398,17.85z M66.914,12.046
			c-3.307,0-5.896,2.567-5.896,5.845c0,3.243,2.572,5.782,5.856,5.782c3.317,0,5.916-2.558,5.916-5.823
			C72.79,14.595,70.209,12.046,66.914,12.046z M66.914,21.162c-1.76,0-3.085-1.426-3.085-3.314c0-1.896,1.28-3.272,3.045-3.272
			c1.771,0,3.104,1.425,3.104,3.315C69.979,19.787,68.689,21.162,66.914,21.162z M79.85,12.272H77.15V9.49
			c0-0.099-0.08-0.18-0.178-0.181h-2.455c-0.1,0-0.18,0.082-0.18,0.181v2.783h-1.179c-0.099,0.001-0.179,0.082-0.179,0.181v2.126
			c0,0.1,0.08,0.182,0.179,0.182h1.179v5.501c0,2.221,1.098,3.35,3.264,3.35c0.879,0,1.608-0.184,2.297-0.577
			c0.057-0.032,0.091-0.093,0.09-0.157v-2.025c0-0.062-0.032-0.119-0.086-0.152c-0.052-0.034-0.118-0.037-0.174-0.008
			c-0.472,0.24-0.928,0.35-1.439,0.35c-0.787,0-1.139-0.361-1.139-1.168v-5.112h2.699c0.1-0.001,0.18-0.083,0.178-0.182l0,0v-2.125
			c0.004-0.097-0.07-0.178-0.167-0.182c-0.003,0-0.006,0-0.009,0H79.85V12.272z M89.257,12.282v-0.34
			c0-1.006,0.384-1.455,1.24-1.455c0.51,0,0.922,0.103,1.382,0.257c0.055,0.019,0.115,0.009,0.161-0.025
			c0.047-0.034,0.074-0.089,0.073-0.146V8.487c0-0.08-0.049-0.15-0.127-0.173c-0.66-0.204-1.348-0.304-2.038-0.296
			c-2.265,0-3.464,1.287-3.464,3.72v0.523h-1.178c-0.1,0.001-0.181,0.082-0.181,0.181v2.137c0,0.1,0.081,0.182,0.181,0.182h1.178
			v8.484c-0.001,0.099,0.079,0.181,0.179,0.181h0.001h2.453c0.1,0,0.18-0.08,0.18-0.181V14.76h2.29l3.511,8.484
			c-0.398,0.89-0.791,1.068-1.326,1.068c-0.432,0-0.888-0.131-1.353-0.389c-0.044-0.021-0.095-0.027-0.142-0.013
			c-0.047,0.017-0.086,0.052-0.106,0.097l-0.832,1.84c-0.04,0.087-0.006,0.189,0.078,0.235c0.868,0.474,1.649,0.676,2.619,0.676
			c1.812,0,2.813-0.852,3.694-3.14l4.256-11.09c0.023-0.055,0.016-0.119-0.019-0.168c-0.032-0.049-0.087-0.078-0.146-0.078h-2.555
			c-0.076,0-0.145,0.048-0.17,0.121l-2.617,7.534l-2.865-7.539c-0.026-0.069-0.093-0.116-0.167-0.116L89.257,12.282L89.257,12.282
			L89.257,12.282z M83.803,12.272H81.35c-0.1,0-0.18,0.082-0.18,0.181v10.792c0,0.099,0.08,0.181,0.18,0.181l0,0h2.455
			c0.099,0,0.18-0.08,0.18-0.18v-0.001v-10.79c0.001-0.1-0.079-0.181-0.178-0.182c-0.002,0-0.002,0-0.002,0L83.803,12.272z
			 M82.59,7.358c-0.972,0-1.76,0.793-1.76,1.773s0.788,1.775,1.76,1.775c0.973,0,1.76-0.794,1.76-1.775
			C84.35,8.151,83.561,7.358,82.59,7.358z"/>
	</g>
	<defs>
		<filter id="Adobe_OpacityMaskFilter" filterUnits="userSpaceOnUse" x="-34.335" y="-96" width="224" height="223">
			<feColorMatrix  type="matrix" values="1 0 0 0 0  0 1 0 0 0  0 0 1 0 0  0 0 0 1 0"/>
		</filter>
	</defs>
	<mask maskUnits="userSpaceOnUse" x="-34.335" y="-96" width="224" height="223" id="b">
		<g filter="url(#Adobe_OpacityMaskFilter)">
			<path id="a" fill="#FFFFFF" d="M15.869,0C7.105,0,0,7.164,0,16c0,8.837,7.105,16,15.869,16c8.765,0,15.869-7.163,15.869-16
				C31.738,7.164,24.634,0,15.869,0L15.869,0z M23.146,23.077c-0.28,0.466-0.885,0.616-1.351,0.336
				c-0.003-0.002-0.006-0.004-0.009-0.006c-3.726-2.294-8.417-2.814-13.94-1.542c-0.533,0.121-1.063-0.214-1.185-0.747
				c0-0.001,0-0.002,0-0.003c-0.125-0.535,0.208-1.07,0.744-1.195c6.045-1.393,11.23-0.793,15.413,1.785
				C23.284,21.993,23.432,22.607,23.146,23.077z M25.088,18.72c-0.351,0.583-1.108,0.77-1.69,0.418
				c-0.003-0.002-0.007-0.005-0.011-0.007c-4.266-2.643-10.768-3.409-15.813-1.865c-0.654,0.198-1.345-0.171-1.543-0.825
				c0-0.001-0.001-0.003-0.001-0.005c-0.199-0.658,0.169-1.353,0.825-1.557c5.763-1.763,12.928-0.909,17.826,2.126
				C25.263,17.366,25.447,18.135,25.088,18.72z M25.255,14.183c-5.114-3.062-13.552-3.344-18.435-1.85
				c-0.783,0.237-1.611-0.205-1.848-0.988c-0.001-0.003-0.002-0.006-0.002-0.009C4.73,10.548,5.171,9.714,5.958,9.469
				c5.605-1.716,14.924-1.384,20.812,2.14c0.707,0.423,0.938,1.34,0.52,2.051c-0.411,0.704-1.314,0.942-2.019,0.532
				C25.267,14.189,25.261,14.186,25.255,14.183L25.255,14.183z M43.174,14.77c-2.74-0.658-3.227-1.12-3.227-2.092
				c0-0.918,0.856-1.536,2.131-1.536c1.236,0,2.46,0.47,3.745,1.435c0.038,0.029,0.087,0.04,0.134,0.033
				c0.048-0.007,0.092-0.034,0.12-0.074l1.338-1.901c0.055-0.078,0.04-0.186-0.034-0.246c-1.53-1.237-3.25-1.838-5.263-1.838
				c-2.958,0-5.025,1.79-5.025,4.351c0,2.747,1.783,3.72,4.864,4.47c2.62,0.608,3.064,1.119,3.064,2.03
				c0,1.011-0.894,1.64-2.334,1.64c-1.6,0-2.905-0.545-4.364-1.817c-0.073-0.064-0.185-0.058-0.25,0.016
				c-0.001,0.002-0.003,0.003-0.004,0.005l-1.501,1.799c-0.063,0.075-0.055,0.187,0.017,0.252c1.698,1.529,3.786,2.335,6.041,2.335
				c3.187,0,5.247-1.756,5.247-4.475c0.006-2.295-1.357-3.565-4.694-4.383L43.174,14.77z M55.085,12.046
				c-1.381,0-2.515,0.549-3.45,1.673v-1.266c0-0.099-0.079-0.179-0.178-0.18h-2.454c-0.099,0-0.179,0.081-0.179,0.18v14.063
				c0,0.101,0.08,0.182,0.179,0.182h2.454c0.1-0.002,0.179-0.082,0.178-0.182v-4.438c0.936,1.057,2.069,1.575,3.45,1.575
				c2.567,0,5.168-1.993,5.168-5.803c0.004-3.811-2.596-5.804-5.166-5.804H55.085z M57.398,17.85c0,1.939-1.184,3.293-2.881,3.293
				c-1.678,0-2.943-1.416-2.943-3.293c0-1.878,1.266-3.293,2.943-3.293C56.188,14.556,57.398,15.94,57.398,17.85z M66.914,12.046
				c-3.307,0-5.896,2.567-5.896,5.845c0,3.243,2.572,5.782,5.856,5.782c3.317,0,5.916-2.558,5.916-5.823
				C72.79,14.595,70.209,12.046,66.914,12.046z M66.914,21.162c-1.76,0-3.085-1.426-3.085-3.314c0-1.896,1.28-3.272,3.045-3.272
				c1.771,0,3.104,1.425,3.104,3.315C69.979,19.787,68.689,21.162,66.914,21.162z M79.85,12.272H77.15V9.49
				c0-0.099-0.08-0.18-0.178-0.181h-2.455c-0.1,0-0.18,0.082-0.18,0.181v2.783h-1.179c-0.099,0.001-0.179,0.082-0.179,0.181v2.126
				c0,0.1,0.08,0.182,0.179,0.182h1.179v5.501c0,2.221,1.098,3.35,3.264,3.35c0.879,0,1.608-0.184,2.297-0.577
				c0.057-0.032,0.091-0.093,0.09-0.157v-2.025c0-0.062-0.032-0.119-0.086-0.152c-0.052-0.034-0.118-0.037-0.174-0.008
				c-0.472,0.24-0.928,0.35-1.439,0.35c-0.787,0-1.139-0.361-1.139-1.168v-5.112h2.699c0.1-0.001,0.18-0.083,0.178-0.182l0,0v-2.125
				c0.004-0.097-0.07-0.178-0.167-0.182c-0.003,0-0.006,0-0.009,0H79.85V12.272z M89.257,12.282v-0.34
				c0-1.006,0.384-1.455,1.24-1.455c0.51,0,0.922,0.103,1.382,0.257c0.055,0.019,0.115,0.009,0.161-0.025
				c0.047-0.034,0.074-0.089,0.073-0.146V8.487c0-0.08-0.049-0.15-0.127-0.173c-0.66-0.204-1.348-0.304-2.038-0.296
				c-2.265,0-3.464,1.287-3.464,3.72v0.523h-1.178c-0.1,0.001-0.181,0.082-0.181,0.181v2.137c0,0.1,0.081,0.182,0.181,0.182h1.178
				v8.484c-0.001,0.099,0.079,0.181,0.179,0.181h0.001h2.453c0.1,0,0.18-0.08,0.18-0.181V14.76h2.29l3.511,8.484
				c-0.398,0.89-0.791,1.068-1.326,1.068c-0.432,0-0.888-0.131-1.353-0.389c-0.044-0.021-0.095-0.027-0.142-0.013
				c-0.047,0.017-0.086,0.052-0.106,0.097l-0.832,1.84c-0.04,0.087-0.006,0.189,0.078,0.235c0.868,0.474,1.649,0.676,2.619,0.676
				c1.812,0,2.813-0.852,3.694-3.14l4.256-11.09c0.023-0.055,0.016-0.119-0.019-0.168c-0.032-0.049-0.087-0.078-0.146-0.078h-2.555
				c-0.076,0-0.145,0.048-0.17,0.121l-2.617,7.534l-2.865-7.539c-0.026-0.069-0.093-0.116-0.167-0.116L89.257,12.282L89.257,12.282
				L89.257,12.282z M83.803,12.272H81.35c-0.1,0-0.18,0.082-0.18,0.181v10.792c0,0.099,0.08,0.181,0.18,0.181l0,0h2.455
				c0.099,0,0.18-0.08,0.18-0.18v-0.001v-10.79c0.001-0.1-0.079-0.181-0.178-0.182c-0.002,0-0.002,0-0.002,0L83.803,12.272z
				 M82.59,7.358c-0.972,0-1.76,0.793-1.76,1.773s0.788,1.775,1.76,1.775c0.973,0,1.76-0.794,1.76-1.775
				C84.35,8.151,83.561,7.358,82.59,7.358z"/>
		</g>
	</mask>
	<g mask="url(#b)">
		<path fill="#FFFFFF" d="M-34.335-96h224v223h-224V-96z"/>
	</g>
</g>
</svg>
