<?xml version="1.0" encoding="utf-8"?>
<!-- Generator: Adobe Illustrator 16.0.0, SVG Export Plug-In . SVG Version: 6.00 Build 0)  -->
<!DOCTYPE svg PUBLIC "-//W3C//DTD SVG 1.1//EN" "http://www.w3.org/Graphics/SVG/1.1/DTD/svg11.dtd">
<svg version="1.1" id="Layer_1" xmlns="http://www.w3.org/2000/svg" xmlns:xlink="http://www.w3.org/1999/xlink" x="0px" y="0px"
	 width="142px" height="32px" viewBox="0 0 142 32" enable-background="new 0 0 142 32" xml:space="preserve">
<g>
	<g>
		<path id="a_1_" fill="#FFFFFE" d="M18.081,22.96V9.397l11.744,6.781l-11.744,6.78V22.96z M44.26,5.297
			c0.945,3.526,0.945,10.88,0.945,10.88s0,7.356-0.945,10.882c-0.524,1.949-2.046,3.471-3.996,3.996C36.737,32,22.602,32,22.602,32
			S8.466,32,4.94,31.055c-1.949-0.523-3.471-2.046-3.995-3.994C0,23.534,0,16.179,0,16.179s0-7.355,0.945-10.88
			C1.469,3.35,2.991,1.826,4.94,1.301c3.526-0.943,17.661-0.943,17.661-0.943s14.136,0,17.662,0.944
			C42.212,1.826,43.735,3.349,44.26,5.297L44.26,5.297z M65.614,29.143c-0.894-0.603-1.53-1.539-1.907-2.812
			s-0.566-2.963-0.566-5.075V18.38c0-2.134,0.216-3.848,0.647-5.14c0.43-1.294,1.104-2.236,2.02-2.829
			c0.916-0.593,2.117-0.89,3.605-0.89c1.465,0,2.64,0.303,3.522,0.906c0.883,0.604,1.53,1.547,1.94,2.829
			c0.409,1.282,0.614,2.99,0.614,5.124v2.877c0,2.112-0.2,3.81-0.598,5.091c-0.4,1.282-1.047,2.219-1.94,2.813
			c-0.894,0.593-2.106,0.89-3.636,0.89c-1.574,0-2.808-0.303-3.702-0.905V29.143z M70.624,26.04
			c0.248-0.647,0.372-1.703,0.372-3.168v-6.175c0-1.422-0.124-2.462-0.371-3.12c-0.248-0.656-0.685-0.985-1.31-0.985
			c-0.603,0-1.029,0.329-1.276,0.986c-0.248,0.657-0.372,1.697-0.372,3.12v6.174c0,1.465,0.118,2.521,0.356,3.168
			c0.236,0.646,0.667,0.97,1.293,0.97C69.94,27.01,70.376,26.686,70.624,26.04L70.624,26.04z M134.273,21.302v1.003
			c0,1.271,0.037,2.226,0.113,2.86c0.074,0.636,0.23,1.101,0.469,1.39c0.236,0.293,0.603,0.438,1.1,0.438
			c0.667,0,1.125-0.258,1.373-0.776c0.247-0.517,0.382-1.379,0.404-2.586l3.847,0.226c0.021,0.174,0.032,0.41,0.032,0.713
			c0,1.83-0.5,3.199-1.504,4.104c-1.002,0.905-2.42,1.358-4.25,1.358c-2.198,0-3.74-0.69-4.623-2.07
			c-0.885-1.378-1.325-3.512-1.325-6.4v-3.459c0-2.974,0.458-5.145,1.374-6.514c0.916-1.368,2.484-2.052,4.703-2.052
			c1.529,0,2.705,0.28,3.523,0.84s1.395,1.434,1.73,2.619c0.332,1.185,0.5,2.823,0.5,4.913v3.394H134.273L134.273,21.302z
			 M134.839,12.962c-0.226,0.28-0.378,0.739-0.452,1.374c-0.076,0.636-0.113,1.6-0.113,2.893v1.424h3.265V17.23
			c0-1.271-0.043-2.235-0.13-2.894c-0.086-0.657-0.242-1.12-0.469-1.39c-0.226-0.27-0.576-0.404-1.049-0.404
			C135.415,12.543,135.064,12.683,134.839,12.962L134.839,12.962z M54.752,20.932l-5.076-18.33h4.429l1.778,8.308
			c0.453,2.048,0.786,3.793,1.002,5.237h0.13c0.15-1.034,0.484-2.769,1.001-5.204l1.843-8.34h4.429l-5.14,18.329v8.793H54.75v-8.793
			H54.752z M89.893,9.91v19.816h-3.49l-0.389-2.426h-0.098c-0.948,1.832-2.37,2.748-4.268,2.748c-1.313,0-2.283-0.43-2.91-1.293
			c-0.623-0.861-0.937-2.209-0.937-4.04V9.91h4.462v14.547c0,0.884,0.098,1.514,0.291,1.891s0.518,0.565,0.969,0.565
			c0.389,0,0.761-0.118,1.115-0.356c0.344-0.222,0.617-0.535,0.793-0.904V9.91H89.893z M112.775,9.91v19.816h-3.492l-0.389-2.426
			h-0.096c-0.949,1.832-2.371,2.748-4.268,2.748c-1.314,0-2.284-0.43-2.909-1.293c-0.625-0.861-0.937-2.209-0.937-4.04V9.91h4.459
			v14.547c0,0.884,0.098,1.514,0.291,1.891c0.195,0.377,0.519,0.565,0.971,0.565c0.388,0,0.76-0.118,1.115-0.356
			c0.343-0.222,0.617-0.535,0.793-0.904V9.91h4.459H112.775z M102.016,6.192h-4.431v23.535h-4.362V6.192h-4.43V2.604h13.223V6.192z
			 M127.539,13.077c0.27,1.25,0.404,2.986,0.404,5.205v3.136c0,2.952-0.356,5.123-1.067,6.514s-1.821,2.084-3.33,2.084
			c-0.84,0-1.604-0.192-2.295-0.58c-0.663-0.361-1.204-0.914-1.551-1.584h-0.097l-0.453,1.873h-3.686V1.601h4.301v10.442h0.031
			c0.379-0.744,0.947-1.374,1.648-1.826c0.68-0.453,1.479-0.695,2.296-0.695c1.055,0,1.885,0.28,2.489,0.84
			C126.833,10.922,127.27,11.828,127.539,13.077z M123.45,21.16v-2.553c0-1.553-0.05-2.749-0.146-3.589
			c-0.098-0.84-0.271-1.438-0.518-1.794c-0.248-0.355-0.598-0.533-1.051-0.533c-0.432,0-0.829,0.173-1.196,0.517
			c-0.366,0.345-0.625,0.787-0.776,1.325v11.25c0.195,0.345,0.447,0.603,0.76,0.775c0.313,0.174,0.652,0.258,1.02,0.258
			c0.473,0,0.85-0.172,1.13-0.517c0.281-0.344,0.479-0.926,0.599-1.745C123.391,23.736,123.45,22.604,123.45,21.16z"/>
	</g>
	<defs>
		<filter id="Adobe_OpacityMaskFilter" filterUnits="userSpaceOnUse" x="-34.335" y="-96" width="224" height="223">
			<feColorMatrix  type="matrix" values="1 0 0 0 0  0 1 0 0 0  0 0 1 0 0  0 0 0 1 0"/>
		</filter>
	</defs>
	<mask maskUnits="userSpaceOnUse" x="-34.335" y="-96" width="224" height="223" id="b">
		<g filter="url(#Adobe_OpacityMaskFilter)">
			<path id="a" fill="#FFFFFF" d="M18.081,22.96V9.397l11.744,6.781l-11.744,6.78V22.96z M44.26,5.297
				c0.945,3.526,0.945,10.88,0.945,10.88s0,7.356-0.945,10.882c-0.524,1.949-2.046,3.471-3.996,3.996C36.737,32,22.602,32,22.602,32
				S8.466,32,4.94,31.055c-1.949-0.523-3.471-2.046-3.995-3.994C0,23.534,0,16.179,0,16.179s0-7.355,0.945-10.88
				C1.469,3.35,2.991,1.826,4.94,1.301c3.526-0.943,17.661-0.943,17.661-0.943s14.136,0,17.662,0.944
				C42.212,1.826,43.735,3.349,44.26,5.297L44.26,5.297z M65.614,29.143c-0.894-0.603-1.53-1.539-1.907-2.812
				s-0.566-2.963-0.566-5.075V18.38c0-2.134,0.216-3.848,0.647-5.14c0.43-1.294,1.104-2.236,2.02-2.829
				c0.916-0.593,2.117-0.89,3.605-0.89c1.465,0,2.64,0.303,3.522,0.906c0.883,0.604,1.53,1.547,1.94,2.829
				c0.409,1.282,0.614,2.99,0.614,5.124v2.877c0,2.112-0.2,3.81-0.598,5.091c-0.4,1.282-1.047,2.219-1.94,2.813
				c-0.894,0.593-2.106,0.89-3.636,0.89c-1.574,0-2.808-0.303-3.702-0.905V29.143z M70.624,26.04
				c0.248-0.647,0.372-1.703,0.372-3.168v-6.175c0-1.422-0.124-2.462-0.371-3.12c-0.248-0.656-0.685-0.985-1.31-0.985
				c-0.603,0-1.029,0.329-1.276,0.986c-0.248,0.657-0.372,1.697-0.372,3.12v6.174c0,1.465,0.118,2.521,0.356,3.168
				c0.236,0.646,0.667,0.97,1.293,0.97C69.94,27.01,70.376,26.686,70.624,26.04L70.624,26.04z M134.273,21.302v1.003
				c0,1.271,0.037,2.226,0.113,2.86c0.074,0.636,0.23,1.101,0.469,1.39c0.236,0.293,0.603,0.438,1.1,0.438
				c0.667,0,1.125-0.258,1.373-0.776c0.247-0.517,0.382-1.379,0.404-2.586l3.847,0.226c0.021,0.174,0.032,0.41,0.032,0.713
				c0,1.83-0.5,3.199-1.504,4.104c-1.002,0.905-2.42,1.358-4.25,1.358c-2.198,0-3.74-0.69-4.623-2.07
				c-0.885-1.378-1.325-3.512-1.325-6.4v-3.459c0-2.974,0.458-5.145,1.374-6.514c0.916-1.368,2.484-2.052,4.703-2.052
				c1.529,0,2.705,0.28,3.523,0.84s1.395,1.434,1.73,2.619c0.332,1.185,0.5,2.823,0.5,4.913v3.394H134.273L134.273,21.302z
				 M134.839,12.962c-0.226,0.28-0.378,0.739-0.452,1.374c-0.076,0.636-0.113,1.6-0.113,2.893v1.424h3.265V17.23
				c0-1.271-0.043-2.235-0.13-2.894c-0.086-0.657-0.242-1.12-0.469-1.39c-0.226-0.27-0.576-0.404-1.049-0.404
				C135.415,12.543,135.064,12.683,134.839,12.962L134.839,12.962z M54.752,20.932l-5.076-18.33h4.429l1.778,8.308
				c0.453,2.048,0.786,3.793,1.002,5.237h0.13c0.15-1.034,0.484-2.769,1.001-5.204l1.843-8.34h4.429l-5.14,18.329v8.793H54.75
				v-8.793H54.752z M89.893,9.91v19.816h-3.49l-0.389-2.426h-0.098c-0.948,1.832-2.37,2.748-4.268,2.748
				c-1.313,0-2.283-0.43-2.91-1.293c-0.623-0.861-0.937-2.209-0.937-4.04V9.91h4.462v14.547c0,0.884,0.098,1.514,0.291,1.891
				s0.518,0.565,0.969,0.565c0.389,0,0.761-0.118,1.115-0.356c0.344-0.222,0.617-0.535,0.793-0.904V9.91H89.893z M112.775,9.91
				v19.816h-3.492l-0.389-2.426h-0.096c-0.949,1.832-2.371,2.748-4.268,2.748c-1.314,0-2.284-0.43-2.909-1.293
				c-0.625-0.861-0.937-2.209-0.937-4.04V9.91h4.459v14.547c0,0.884,0.098,1.514,0.291,1.891c0.195,0.377,0.519,0.565,0.971,0.565
				c0.388,0,0.76-0.118,1.115-0.356c0.343-0.222,0.617-0.535,0.793-0.904V9.91h4.459H112.775z M102.016,6.192h-4.431v23.535h-4.362
				V6.192h-4.43V2.604h13.223V6.192z M127.539,13.077c0.27,1.25,0.404,2.986,0.404,5.205v3.136c0,2.952-0.356,5.123-1.067,6.514
				s-1.821,2.084-3.33,2.084c-0.84,0-1.604-0.192-2.295-0.58c-0.663-0.361-1.204-0.914-1.551-1.584h-0.097l-0.453,1.873h-3.686
				V1.601h4.301v10.442h0.031c0.379-0.744,0.947-1.374,1.648-1.826c0.68-0.453,1.479-0.695,2.296-0.695
				c1.055,0,1.885,0.28,2.489,0.84C126.833,10.922,127.27,11.828,127.539,13.077z M123.45,21.16v-2.553
				c0-1.553-0.05-2.749-0.146-3.589c-0.098-0.84-0.271-1.438-0.518-1.794c-0.248-0.355-0.598-0.533-1.051-0.533
				c-0.432,0-0.829,0.173-1.196,0.517c-0.366,0.345-0.625,0.787-0.776,1.325v11.25c0.195,0.345,0.447,0.603,0.76,0.775
				c0.313,0.174,0.652,0.258,1.02,0.258c0.473,0,0.85-0.172,1.13-0.517c0.281-0.344,0.479-0.926,0.599-1.745
				C123.391,23.736,123.45,22.604,123.45,21.16z"/>
		</g>
	</mask>
	<g mask="url(#b)">
		<path fill="#FFFFFF" d="M-34.335-96h224v223h-224V-96z"/>
	</g>
</g>
</svg>
