<svg xmlns="http://www.w3.org/2000/svg" xmlns:xlink="http://www.w3.org/1999/xlink" width="142" height="32" viewBox="0 0 142 32">
    <defs>
        <path id="a" d="M18.081 22.96V9.397l11.744 6.781-11.744 6.78zM44.26 5.297c.945 3.526.945 10.88.945 10.88s0 7.356-.945 10.881a5.66 5.66 0 0 1-3.996 3.996C36.737 32 22.602 32 22.602 32S8.466 32 4.94 31.055A5.66 5.66 0 0 1 .945 27.06C0 23.534 0 16.179 0 16.179s0-7.355.945-10.88A5.661 5.661 0 0 1 4.94 1.301C8.466.358 22.601.358 22.601.358s14.136 0 17.662.944a5.661 5.661 0 0 1 3.996 3.996zm21.354 23.846c-.894-.603-1.53-1.54-1.907-2.812-.377-1.272-.566-2.963-.566-5.075V18.38c0-2.134.216-3.848.647-5.14.43-1.294 1.104-2.236 2.02-2.829.916-.593 2.117-.89 3.605-.89 1.465 0 2.64.303 3.523.906.883.604 1.53 1.547 1.94 2.829.409 1.282.614 2.99.614 5.124v2.877c0 2.112-.2 3.809-.598 5.09-.4 1.283-1.046 2.22-1.94 2.813-.894.593-2.106.89-3.636.89-1.574 0-2.808-.303-3.702-.906zm5.01-3.103c.248-.647.372-1.703.372-3.168v-6.175c0-1.422-.124-2.462-.371-3.12-.248-.656-.685-.985-1.31-.985-.603 0-1.029.329-1.276.986-.248.657-.372 1.697-.372 3.12v6.174c0 1.465.118 2.521.356 3.168.236.646.667.97 1.293.97.624 0 1.06-.324 1.309-.97zm63.65-4.738v1.003c0 1.271.036 2.225.112 2.86.075.636.231 1.1.469 1.39.237.292.603.437 1.1.437.667 0 1.125-.258 1.373-.776.247-.517.382-1.379.404-2.586l3.847.226c.021.173.032.41.032.712 0 1.831-.5 3.2-1.503 4.105-1.002.905-2.42 1.358-4.251 1.358-2.198 0-3.74-.69-4.623-2.07-.884-1.378-1.325-3.512-1.325-6.4v-3.459c0-2.974.458-5.145 1.374-6.514.916-1.368 2.484-2.052 4.703-2.052 1.53 0 2.705.28 3.524.84.818.56 1.395 1.434 1.73 2.619.333 1.185.5 2.823.5 4.913v3.394h-7.467zm.565-8.34c-.226.28-.378.739-.453 1.374-.076.636-.113 1.6-.113 2.893v1.423h3.265V17.23c0-1.27-.043-2.235-.13-2.893-.086-.657-.242-1.12-.468-1.39-.226-.269-.577-.404-1.05-.404-.475 0-.825.14-1.051.42zm-80.087 7.97l-5.076-18.33h4.429l1.778 8.308c.453 2.048.786 3.793 1.002 5.237h.13c.15-1.034.484-2.769 1.001-5.204l1.843-8.34h4.429l-5.14 18.328v8.794H54.75v-8.794zM89.892 9.91v19.816h-3.49l-.389-2.425h-.097c-.948 1.832-2.37 2.748-4.267 2.748-1.314 0-2.284-.43-2.91-1.293-.624-.862-.937-2.209-.937-4.04V9.91h4.461v14.547c0 .884.098 1.514.291 1.89.194.378.518.566.97.566.388 0 .76-.118 1.115-.356a2.2 2.2 0 0 0 .792-.904V9.91h4.461zm22.883 0v19.816h-3.492l-.388-2.425h-.096c-.95 1.832-2.371 2.748-4.268 2.748-1.314 0-2.284-.43-2.909-1.293-.625-.862-.937-2.209-.937-4.04V9.91h4.46v14.547c0 .884.097 1.514.291 1.89.195.378.518.566.97.566.388 0 .76-.118 1.115-.356a2.2 2.2 0 0 0 .793-.904V9.91h4.46zm-10.76-3.718h-4.43v23.534h-4.363V6.192h-4.429V2.604h13.222v3.588zm25.524 6.885c.269 1.25.404 2.986.404 5.205v3.136c0 2.952-.356 5.123-1.067 6.514-.711 1.39-1.821 2.084-3.33 2.084-.84 0-1.605-.193-2.295-.581a3.786 3.786 0 0 1-1.551-1.584h-.097l-.453 1.874h-3.685V1.601h4.3v10.442h.032a4.724 4.724 0 0 1 1.649-1.826 4.13 4.13 0 0 1 2.295-.695c1.055 0 1.885.28 2.489.84.603.56 1.04 1.466 1.309 2.715zm-4.089 8.083v-2.553c0-1.552-.049-2.748-.146-3.589-.097-.84-.27-1.438-.517-1.794-.248-.355-.598-.533-1.05-.533-.432 0-.83.173-1.197.517-.366.345-.625.787-.776 1.325v11.25c.195.345.447.603.76.776.312.173.652.258 1.019.258.473 0 .85-.172 1.13-.517.281-.344.48-.926.599-1.746.118-.818.178-1.95.178-3.394z"/>
    </defs>
    <g fill="none" fill-rule="evenodd">
        <mask id="b" fill="#fff">
            <use xlink:href="#a"/>
        </mask>
        <use fill="#FFFFFE" xlink:href="#a"/>
        <g fill="#23262C" mask="url(#b)">
            <path d="M-34.335-96h224v223h-224z"/>
        </g>
    </g>
</svg>
